<?xml version="1.0" encoding="UTF-8" standalone="no"?>
<svg width="68px" height="49px" viewBox="0 0 68 49" version="1.1" xmlns="http://www.w3.org/2000/svg" xmlns:xlink="http://www.w3.org/1999/xlink" xmlns:sketch="http://www.bohemiancoding.com/sketch/ns">
    <!-- Generator: Sketch 3.3.2 (12043) - http://www.bohemiancoding.com/sketch -->
    <title>Slice 1</title>
    <desc>Created with Sketch.</desc>
    <defs></defs>
    <g id="Page-1" stroke="none" stroke-width="1" fill="none" fill-rule="evenodd" sketch:type="MSPage">
        <g id="Imported-Layers" sketch:type="MSLayerGroup" transform="translate(0.000000, -729.000000)" fill="#F9E93C">
            <path d="M0.591,746.995 C0.78,737.322 8.582,729.519 18.258,729.331 L18.258,738.646 C13.724,738.83 10.09,742.465 9.906,746.995 L0.591,746.995" id="Fill-1" sketch:type="MSShapeGroup"></path>
            <path d="M0.591,759.617 C0.777,769.292 8.582,777.096 18.255,777.284 L18.255,767.967 C13.724,767.784 10.09,764.15 9.906,759.617 L0.591,759.617" id="Fill-2" sketch:type="MSShapeGroup"></path>
            <path d="M37.58,759.613 C37.393,769.289 29.588,777.092 19.913,777.279 L19.913,767.964 C24.446,767.781 28.08,764.146 28.263,759.613 L37.58,759.613" id="Fill-3" sketch:type="MSShapeGroup"></path>
            <path d="M37.58,746.995 C37.393,737.322 29.588,729.519 19.913,729.331 L19.913,738.646 C24.446,738.83 28.08,742.465 28.263,746.995 L37.58,746.995" id="Fill-4" sketch:type="MSShapeGroup"></path>
            <path d="M0.591,748.655 L9.898,748.655 L9.898,757.963 L0.591,757.963 L0.591,748.655 Z" id="Fill-5" sketch:type="MSShapeGroup"></path>
            <path d="M28.272,748.651 L37.58,748.651 L37.58,757.958 L28.272,757.958 L28.272,748.651 Z" id="Fill-6" sketch:type="MSShapeGroup"></path>
            <path d="M57.937,748.657 L67.244,748.657 L67.244,766.314 L57.937,766.314 L57.937,748.657 Z" id="Fill-7" sketch:type="MSShapeGroup"></path>
            <path d="M57.937,729.343 L67.244,729.343 L67.244,747 L57.937,747 L57.937,729.343 Z" id="Fill-8" sketch:type="MSShapeGroup"></path>
            <path d="M46.975,729.343 L56.282,729.343 L56.282,738.649 L46.975,738.649 L46.975,729.343 Z" id="Fill-9" sketch:type="MSShapeGroup"></path>
            <path d="M57.936,767.96 L67.243,767.96 L67.243,777.266 L57.936,777.266 L57.936,767.96 Z" id="Fill-10" sketch:type="MSShapeGroup"></path>
        </g>
    </g>
</svg>