<?xml version="1.0" encoding="UTF-8" standalone="no"?>
<svg width="76px" height="49px" viewBox="0 0 76 49" version="1.1" xmlns="http://www.w3.org/2000/svg" xmlns:xlink="http://www.w3.org/1999/xlink" xmlns:sketch="http://www.bohemiancoding.com/sketch/ns">
    <!-- Generator: Sketch 3.3.2 (12043) - http://www.bohemiancoding.com/sketch -->
    <title>Slice 2</title>
    <desc>Created with Sketch.</desc>
    <defs></defs>
    <g id="Page-1" stroke="none" stroke-width="1" fill="none" fill-rule="evenodd" sketch:type="MSPage">
        <g id="Imported-Layers" sketch:type="MSLayerGroup" transform="translate(-112.000000, -729.000000)" fill="#F9E93C">
            <path d="M112.276,746.99 C112.464,737.316 120.268,729.511 129.943,729.323 L129.943,738.64 C125.409,738.823 121.775,742.458 121.593,746.99 L112.276,746.99" id="Fill-11" sketch:type="MSShapeGroup"></path>
            <path d="M112.276,759.612 C112.463,769.287 120.268,777.089 129.943,777.279 L129.943,767.961 C125.409,767.778 121.775,764.144 121.592,759.612 L112.276,759.612" id="Fill-12" sketch:type="MSShapeGroup"></path>
            <path d="M149.265,759.608 C149.078,769.283 141.273,777.086 131.598,777.275 L131.598,767.958 C136.132,767.775 139.766,764.141 139.949,759.608 L149.265,759.608" id="Fill-13" sketch:type="MSShapeGroup"></path>
            <path d="M149.265,746.99 C149.078,737.316 141.273,729.511 131.598,729.323 L131.598,738.64 C136.132,738.823 139.766,742.458 139.949,746.99 L149.265,746.99" id="Fill-14" sketch:type="MSShapeGroup"></path>
            <path d="M112.276,748.649 L121.583,748.649 L121.583,757.956 L112.276,757.956 L112.276,748.649 Z" id="Fill-15" sketch:type="MSShapeGroup"></path>
            <path d="M139.957,748.645 L149.265,748.645 L149.265,757.952 L139.957,757.952 L139.957,748.645 Z" id="Fill-16" sketch:type="MSShapeGroup"></path>
            <path d="M158.507,759.626 L167.814,759.626 L167.814,777.284 L158.507,777.284 L158.507,759.626 Z" id="Fill-17" sketch:type="MSShapeGroup"></path>
            <path d="M158.507,748.643 L167.814,748.643 L167.814,757.949 L158.507,757.949 L158.507,748.643 Z" id="Fill-18" sketch:type="MSShapeGroup"></path>
            <path d="M187.132,746.986 C186.945,737.313 179.139,729.508 169.465,729.321 L169.465,738.637 C173.997,738.821 177.634,742.454 177.815,746.986 L187.132,746.986" id="Fill-19" sketch:type="MSShapeGroup"></path>
            <path d="M169.47,748.643 L187.127,748.643 L187.127,757.949 L169.47,757.949 L169.47,748.643 Z" id="Fill-20" sketch:type="MSShapeGroup"></path>
            <path d="M158.507,729.361 L167.814,729.361 L167.814,738.668 L158.507,738.668 L158.507,729.361 Z" id="Fill-21" sketch:type="MSShapeGroup"></path>
            <path d="M169.469,767.977 L187.127,767.977 L187.127,777.284 L169.469,777.284 L169.469,767.977 Z" id="Fill-22" sketch:type="MSShapeGroup"></path>
        </g>
    </g>
</svg>