<?xml version="1.0" encoding="UTF-8" standalone="no"?>
<svg width="76px" height="49px" viewBox="0 0 76 49" version="1.1" xmlns="http://www.w3.org/2000/svg" xmlns:xlink="http://www.w3.org/1999/xlink" xmlns:sketch="http://www.bohemiancoding.com/sketch/ns">
    <!-- Generator: Sketch 3.3.2 (12043) - http://www.bohemiancoding.com/sketch -->
    <title>s</title>
    <desc>Created with Sketch.</desc>
    <defs></defs>
    <g id="Page-1" stroke="none" stroke-width="1" fill="none" fill-rule="evenodd" sketch:type="MSPage">
        <g id="Imported-Layers" sketch:type="MSLayerGroup" transform="translate(-223.000000, -729.000000)" fill="#F9E93C">
            <path d="M223.961,748.672 L233.268,748.672 L233.268,757.978 L223.961,757.978 L223.961,748.672 Z" id="Fill-23" sketch:type="MSShapeGroup"></path>
            <path d="M223.961,747.012 C224.148,737.339 231.953,729.534 241.627,729.347 L241.627,738.663 C237.094,738.847 233.461,742.48 233.277,747.012 L223.961,747.012" id="Fill-24" sketch:type="MSShapeGroup"></path>
            <path d="M223.961,759.634 C224.148,769.309 231.953,777.113 241.627,777.301 L241.627,767.983 C237.094,767.801 233.46,764.166 233.276,759.634 L223.961,759.634" id="Fill-25" sketch:type="MSShapeGroup"></path>
            <path d="M260.95,759.63 C260.762,769.305 252.959,777.109 243.284,777.296 L243.284,767.979 C247.816,767.797 251.451,764.162 251.634,759.63 L260.95,759.63" id="Fill-26" sketch:type="MSShapeGroup"></path>
            <path d="M260.95,747.012 C260.762,737.339 252.959,729.534 243.284,729.347 L243.284,738.663 C247.816,738.847 251.451,742.48 251.634,747.012 L260.95,747.012" id="Fill-27" sketch:type="MSShapeGroup"></path>
            <path d="M251.643,748.669 L260.95,748.669 L260.95,757.975 L251.643,757.975 L251.643,748.669 Z" id="Fill-28" sketch:type="MSShapeGroup"></path>
            <path d="M269.827,767.974 L279.133,767.974 L279.133,777.28 L269.827,777.28 L269.827,767.974 Z" id="Fill-29" sketch:type="MSShapeGroup"></path>
            <path d="M298.456,746.981 C298.268,737.309 290.463,729.504 280.788,729.316 L280.788,738.633 C285.321,738.815 288.956,742.45 289.138,746.981 L298.456,746.981" id="Fill-30" sketch:type="MSShapeGroup"></path>
            <path d="M280.793,748.638 L298.45,748.638 L298.45,757.944 L280.793,757.944 L280.793,748.638 Z" id="Fill-31" sketch:type="MSShapeGroup"></path>
            <path d="M280.788,777.28 C290.463,777.093 298.268,769.289 298.456,759.614 L289.138,759.614 C288.956,764.146 285.321,767.781 280.788,767.965 L280.788,777.28" id="Fill-32" sketch:type="MSShapeGroup"></path>
            <path d="M269.827,729.357 L279.133,729.357 L279.133,738.663 L269.827,738.663 L269.827,729.357 Z" id="Fill-33" sketch:type="MSShapeGroup"></path>
        </g>
    </g>
</svg>