<?xml version="1.0" encoding="UTF-8" standalone="no"?>
<svg width="87px" height="49px" viewBox="0 0 87 49" version="1.1" xmlns="http://www.w3.org/2000/svg" xmlns:xlink="http://www.w3.org/1999/xlink" xmlns:sketch="http://www.bohemiancoding.com/sketch/ns">
    <!-- Generator: Sketch 3.3.2 (12043) - http://www.bohemiancoding.com/sketch -->
    <title>Slice 1</title>
    <desc>Created with Sketch.</desc>
    <defs></defs>
    <g id="Page-1" stroke="none" stroke-width="1" fill="none" fill-rule="evenodd" sketch:type="MSPage">
        <g id="Imported-Layers" sketch:type="MSLayerGroup" transform="translate(-335.000000, -729.000000)" fill="#F9E93C">
            <path d="M335.646,747.011 C335.833,737.336 343.636,729.533 353.311,729.346 L353.311,738.662 C348.778,738.845 345.145,742.478 344.962,747.011 L335.646,747.011" id="Fill-34" sketch:type="MSShapeGroup"></path>
            <path d="M335.646,759.634 C335.831,769.308 343.636,777.113 353.311,777.3 L353.311,767.983 C348.778,767.801 345.144,764.167 344.961,759.634 L335.646,759.634" id="Fill-35" sketch:type="MSShapeGroup"></path>
            <path d="M372.635,759.629 C372.448,769.304 364.643,777.108 354.967,777.294 L354.967,767.978 C359.5,767.796 363.135,764.161 363.318,759.629 L372.635,759.629" id="Fill-36" sketch:type="MSShapeGroup"></path>
            <path d="M372.635,747.011 C372.448,737.336 364.643,729.533 354.967,729.346 L354.967,738.662 C359.5,738.845 363.135,742.478 363.318,747.011 L372.635,747.011" id="Fill-37" sketch:type="MSShapeGroup"></path>
            <path d="M335.645,748.671 L344.952,748.671 L344.952,757.978 L335.645,757.978 L335.645,748.671 Z" id="Fill-38" sketch:type="MSShapeGroup"></path>
            <path d="M363.327,748.666 L372.635,748.666 L372.635,757.973 L363.327,757.973 L363.327,748.666 Z" id="Fill-39" sketch:type="MSShapeGroup"></path>
            <path d="M401.195,748.63 L410.502,748.63 L410.502,766.288 L401.195,766.288 L401.195,748.63 Z" id="Fill-40" sketch:type="MSShapeGroup"></path>
            <path d="M401.195,729.315 L410.502,729.315 L410.502,746.973 L401.195,746.973 L401.195,729.315 Z" id="Fill-41" sketch:type="MSShapeGroup"></path>
            <path d="M381.883,748.63 L399.541,748.63 L399.541,757.937 L381.883,757.937 L381.883,748.63 Z" id="Fill-42" sketch:type="MSShapeGroup"></path>
            <path d="M412.159,748.63 L421.467,748.63 L421.467,757.937 L412.159,757.937 L412.159,748.63 Z" id="Fill-43" sketch:type="MSShapeGroup"></path>
            <path d="M401.195,767.943 L410.502,767.943 L410.502,777.25 L401.195,777.25 L401.195,767.943 Z" id="Fill-44" sketch:type="MSShapeGroup"></path>
            <path d="M381.883,729.315 L391.19,729.315 L391.19,746.973 L381.883,746.973 L381.883,729.315 Z" id="Fill-45" sketch:type="MSShapeGroup"></path>
        </g>
    </g>
</svg>