<?xml version="1.0" encoding="UTF-8" standalone="no"?>
<svg width="76px" height="49px" viewBox="0 0 76 49" version="1.1" xmlns="http://www.w3.org/2000/svg" xmlns:xlink="http://www.w3.org/1999/xlink" xmlns:sketch="http://www.bohemiancoding.com/sketch/ns">
    <!-- Generator: Sketch 3.3.2 (12043) - http://www.bohemiancoding.com/sketch -->
    <title>Slice 4</title>
    <desc>Created with Sketch.</desc>
    <defs></defs>
    <g id="Page-1" stroke="none" stroke-width="1" fill="none" fill-rule="evenodd" sketch:type="MSPage">
        <g id="Imported-Layers" sketch:type="MSLayerGroup" transform="translate(0.000000, -857.000000)" fill="#F9E93C">
            <path d="M0.591,874.997 C0.78,865.322 8.582,857.519 18.258,857.33 L18.258,866.648 C13.724,866.83 10.09,870.465 9.906,874.997 L0.591,874.997" id="Fill-46" sketch:type="MSShapeGroup"></path>
            <path d="M0.591,887.618 C0.777,897.293 8.582,905.096 18.257,905.284 L18.257,895.967 C13.724,895.785 10.09,892.151 9.906,887.618 L0.591,887.618" id="Fill-47" sketch:type="MSShapeGroup"></path>
            <path d="M37.58,887.615 C37.393,897.29 29.588,905.093 19.913,905.28 L19.913,895.964 C24.446,895.782 28.08,892.146 28.263,887.615 L37.58,887.615" id="Fill-48" sketch:type="MSShapeGroup"></path>
            <path d="M37.58,874.997 C37.393,865.322 29.588,857.519 19.913,857.33 L19.913,866.648 C24.446,866.83 28.08,870.465 28.263,874.997 L37.58,874.997" id="Fill-49" sketch:type="MSShapeGroup"></path>
            <path d="M0.591,876.657 L9.898,876.657 L9.898,885.963 L0.591,885.963 L0.591,876.657 Z" id="Fill-50" sketch:type="MSShapeGroup"></path>
            <path d="M28.272,876.652 L37.58,876.652 L37.58,885.958 L28.272,885.958 L28.272,876.652 Z" id="Fill-51" sketch:type="MSShapeGroup"></path>
            <path d="M46.835,857.334 L56.141,857.334 L56.141,874.992 L46.835,874.992 L46.835,857.334 Z" id="Fill-52" sketch:type="MSShapeGroup"></path>
            <path d="M46.833,876.648 L56.141,876.648 L56.141,885.955 L46.833,885.955 L46.833,876.648 Z" id="Fill-53" sketch:type="MSShapeGroup"></path>
            <path d="M75.459,887.611 C75.272,897.285 67.468,905.089 57.793,905.278 L57.793,895.96 C62.325,895.778 65.96,892.143 66.142,887.611 L75.459,887.611" id="Fill-54" sketch:type="MSShapeGroup"></path>
            <path d="M57.798,876.648 L75.455,876.648 L75.455,885.955 L57.798,885.955 L57.798,876.648 Z" id="Fill-55" sketch:type="MSShapeGroup"></path>
            <path d="M46.829,895.951 L56.136,895.951 L56.136,905.258 L46.829,905.258 L46.829,895.951 Z" id="Fill-56" sketch:type="MSShapeGroup"></path>
            <path d="M57.798,857.334 L75.455,857.334 L75.455,866.641 L57.798,866.641 L57.798,857.334 Z" id="Fill-57" sketch:type="MSShapeGroup"></path>
        </g>
    </g>
</svg>