<?xml version="1.0" encoding="UTF-8" standalone="no"?>
<svg width="82px" height="49px" viewBox="0 0 82 49" version="1.1" xmlns="http://www.w3.org/2000/svg" xmlns:xlink="http://www.w3.org/1999/xlink" xmlns:sketch="http://www.bohemiancoding.com/sketch/ns">
    <!-- Generator: Sketch 3.3.2 (12043) - http://www.bohemiancoding.com/sketch -->
    <title>Slice 3</title>
    <desc>Created with Sketch.</desc>
    <defs></defs>
    <g id="Page-1" stroke="none" stroke-width="1" fill="none" fill-rule="evenodd" sketch:type="MSPage">
        <g id="Imported-Layers" sketch:type="MSLayerGroup" transform="translate(-112.000000, -857.000000)" fill="#F9E93C">
            <path d="M112.276,874.995 C112.464,865.321 120.268,857.518 129.943,857.33 L129.943,866.646 C125.409,866.83 121.775,870.463 121.593,874.995 L112.276,874.995" id="Fill-58" sketch:type="MSShapeGroup"></path>
            <path d="M112.276,887.618 C112.463,897.291 120.268,905.096 129.943,905.285 L129.943,895.967 C125.409,895.786 121.775,892.15 121.592,887.618 L112.276,887.618" id="Fill-59" sketch:type="MSShapeGroup"></path>
            <path d="M149.265,887.614 C149.078,897.288 141.273,905.092 131.598,905.28 L131.598,895.963 C136.132,895.781 139.766,892.146 139.949,887.614 L149.265,887.614" id="Fill-60" sketch:type="MSShapeGroup"></path>
            <path d="M149.265,874.995 C149.078,865.321 141.273,857.518 131.598,857.33 L131.598,866.646 C136.132,866.83 139.766,870.463 139.949,874.995 L149.265,874.995" id="Fill-61" sketch:type="MSShapeGroup"></path>
            <path d="M112.276,876.656 L121.583,876.656 L121.583,885.962 L112.276,885.962 L112.276,876.656 Z" id="Fill-62" sketch:type="MSShapeGroup"></path>
            <path d="M139.957,876.652 L149.265,876.652 L149.265,885.958 L139.957,885.958 L139.957,876.652 Z" id="Fill-63" sketch:type="MSShapeGroup"></path>
            <path d="M156.975,875.006 C157.163,865.331 164.966,857.528 174.642,857.34 L174.642,866.656 C170.109,866.839 166.474,870.474 166.291,875.006 L156.975,875.006" id="Fill-64" sketch:type="MSShapeGroup"></path>
            <path d="M156.98,876.64 L174.637,876.64 L174.637,885.947 L156.98,885.947 L156.98,876.64 Z" id="Fill-65" sketch:type="MSShapeGroup"></path>
            <path d="M156.976,887.603 C157.163,897.277 164.967,905.081 174.642,905.269 L174.642,895.952 C170.11,895.769 166.475,892.135 166.291,887.603 L156.976,887.603" id="Fill-66" sketch:type="MSShapeGroup"></path>
            <path d="M193.963,887.603 C193.776,897.277 185.972,905.081 176.297,905.269 L176.297,895.952 C180.829,895.769 184.464,892.135 184.647,887.603 L193.963,887.603" id="Fill-67" sketch:type="MSShapeGroup"></path>
            <path d="M176.301,876.64 L193.959,876.64 L193.959,885.947 L176.301,885.947 L176.301,876.64 Z" id="Fill-68" sketch:type="MSShapeGroup"></path>
            <path d="M176.298,857.359 L193.956,857.359 L193.956,866.666 L176.298,866.666 L176.298,857.359 Z" id="Fill-69" sketch:type="MSShapeGroup"></path>
        </g>
    </g>
</svg>