<?xml version="1.0" encoding="UTF-8" standalone="no"?>
<svg width="85px" height="49px" viewBox="0 0 85 49" version="1.1" xmlns="http://www.w3.org/2000/svg" xmlns:xlink="http://www.w3.org/1999/xlink" xmlns:sketch="http://www.bohemiancoding.com/sketch/ns">
    <!-- Generator: Sketch 3.3.2 (12043) - http://www.bohemiancoding.com/sketch -->
    <title>Slice 4</title>
    <desc>Created with Sketch.</desc>
    <defs></defs>
    <g id="Page-1" stroke="none" stroke-width="1" fill="none" fill-rule="evenodd" sketch:type="MSPage">
        <g id="Imported-Layers" sketch:type="MSLayerGroup" transform="translate(-223.000000, -857.000000)" fill="#F9E93C">
            <path d="M223.961,874.996 C224.148,865.321 231.953,857.518 241.627,857.33 L241.627,866.647 C237.094,866.829 233.461,870.463 233.277,874.996 L223.961,874.996" id="Fill-70" sketch:type="MSShapeGroup"></path>
            <path d="M223.961,887.618 C224.148,897.293 231.953,905.096 241.627,905.284 L241.627,895.967 C237.094,895.785 233.46,892.151 233.276,887.618 L223.961,887.618" id="Fill-71" sketch:type="MSShapeGroup"></path>
            <path d="M260.95,887.614 C260.762,897.288 252.959,905.092 243.284,905.28 L243.284,895.962 C247.816,895.782 251.451,892.146 251.634,887.614 L260.95,887.614" id="Fill-72" sketch:type="MSShapeGroup"></path>
            <path d="M260.95,874.996 C260.762,865.321 252.959,857.518 243.284,857.33 L243.284,866.647 C247.816,866.829 251.451,870.463 251.634,874.996 L260.95,874.996" id="Fill-73" sketch:type="MSShapeGroup"></path>
            <path d="M223.961,876.656 L233.268,876.656 L233.268,885.963 L223.961,885.963 L223.961,876.656 Z" id="Fill-74" sketch:type="MSShapeGroup"></path>
            <path d="M251.643,876.652 L260.95,876.652 L260.95,885.957 L251.643,885.957 L251.643,876.652 Z" id="Fill-75" sketch:type="MSShapeGroup"></path>
            <path d="M287.514,857.345 L296.821,857.345 L296.821,875.003 L287.514,875.003 L287.514,857.345 Z" id="Fill-76" sketch:type="MSShapeGroup"></path>
            <path d="M287.514,887.621 L296.821,887.621 L296.821,905.279 L287.514,905.279 L287.514,887.621 Z" id="Fill-77" sketch:type="MSShapeGroup"></path>
            <path d="M268.2,857.345 L285.857,857.345 L285.857,866.652 L268.2,866.652 L268.2,857.345 Z" id="Fill-78" sketch:type="MSShapeGroup"></path>
            <path d="M287.514,876.658 L296.821,876.658 L296.821,885.965 L287.514,885.965 L287.514,876.658 Z" id="Fill-79" sketch:type="MSShapeGroup"></path>
            <path d="M276.552,876.658 L285.858,876.658 L285.858,885.965 L276.552,885.965 L276.552,876.658 Z" id="Fill-80" sketch:type="MSShapeGroup"></path>
            <path d="M298.476,876.658 L307.782,876.658 L307.782,885.965 L298.476,885.965 L298.476,876.658 Z" id="Fill-81" sketch:type="MSShapeGroup"></path>
        </g>
    </g>
</svg>