<?xml version="1.0" encoding="UTF-8" standalone="no"?>
<svg width="83px" height="49px" viewBox="0 0 83 49" version="1.1" xmlns="http://www.w3.org/2000/svg" xmlns:xlink="http://www.w3.org/1999/xlink" xmlns:sketch="http://www.bohemiancoding.com/sketch/ns">
    <!-- Generator: Sketch 3.3.2 (12043) - http://www.bohemiancoding.com/sketch -->
    <title>Slice 5</title>
    <desc>Created with Sketch.</desc>
    <defs></defs>
    <g id="Page-1" stroke="none" stroke-width="1" fill="none" fill-rule="evenodd" sketch:type="MSPage">
        <g id="Imported-Layers" sketch:type="MSLayerGroup" transform="translate(-335.000000, -857.000000)" fill="#F9E93C">
            <path d="M335.646,874.95 C335.833,865.276 343.636,857.472 353.311,857.284 L353.311,866.601 C348.778,866.783 345.145,870.418 344.962,874.95 L335.646,874.95" id="Fill-82" sketch:type="MSShapeGroup"></path>
            <path d="M335.646,887.572 C335.831,897.248 343.636,905.05 353.311,905.239 L353.311,895.922 C348.778,895.739 345.144,892.105 344.961,887.572 L335.646,887.572" id="Fill-83" sketch:type="MSShapeGroup"></path>
            <path d="M372.635,887.568 C372.448,897.243 364.643,905.046 354.967,905.235 L354.967,895.917 C359.5,895.736 363.135,892.101 363.318,887.568 L372.635,887.568" id="Fill-84" sketch:type="MSShapeGroup"></path>
            <path d="M372.635,874.95 C372.448,865.276 364.643,857.472 354.967,857.284 L354.967,866.601 C359.5,866.783 363.135,870.418 363.318,874.95 L372.635,874.95" id="Fill-85" sketch:type="MSShapeGroup"></path>
            <path d="M335.645,876.61 L344.952,876.61 L344.952,885.917 L335.645,885.917 L335.645,876.61 Z" id="Fill-86" sketch:type="MSShapeGroup"></path>
            <path d="M363.327,876.606 L372.635,876.606 L372.635,885.913 L363.327,885.913 L363.327,876.606 Z" id="Fill-87" sketch:type="MSShapeGroup"></path>
            <path d="M380.305,874.955 C380.495,865.28 388.297,857.477 397.973,857.289 L397.973,866.606 C393.44,866.788 389.807,870.423 389.623,874.955 L380.305,874.955" id="Fill-88" sketch:type="MSShapeGroup"></path>
            <path d="M380.311,876.61 L397.967,876.61 L397.967,885.916 L380.311,885.916 L380.311,876.61 Z" id="Fill-89" sketch:type="MSShapeGroup"></path>
            <path d="M380.305,887.572 C380.495,897.247 388.297,905.05 397.972,905.238 L397.972,895.921 C393.44,895.739 389.805,892.105 389.623,887.572 L380.305,887.572" id="Fill-90" sketch:type="MSShapeGroup"></path>
            <path d="M417.287,887.572 C417.098,897.247 409.295,905.05 399.62,905.238 L399.62,895.921 C404.152,895.739 407.787,892.105 407.971,887.572 L417.287,887.572" id="Fill-91" sketch:type="MSShapeGroup"></path>
            <path d="M399.633,876.61 L417.29,876.61 L417.29,885.916 L399.633,885.916 L399.633,876.61 Z" id="Fill-92" sketch:type="MSShapeGroup"></path>
            <path d="M417.296,874.955 C417.109,865.28 409.305,857.477 399.629,857.289 L399.629,866.606 C404.161,866.788 407.795,870.423 407.979,874.955 L417.296,874.955" id="Fill-93" sketch:type="MSShapeGroup"></path>
        </g>
    </g>
</svg>