<?xml version="1.0" encoding="UTF-8" standalone="no"?>
<svg width="84px" height="49px" viewBox="0 0 84 49" version="1.1" xmlns="http://www.w3.org/2000/svg" xmlns:xlink="http://www.w3.org/1999/xlink" xmlns:sketch="http://www.bohemiancoding.com/sketch/ns">
    <!-- Generator: Sketch 3.3.2 (12043) - http://www.bohemiancoding.com/sketch -->
    <title>Slice 8</title>
    <desc>Created with Sketch.</desc>
    <defs></defs>
    <g id="Page-1" stroke="none" stroke-width="1" fill="none" fill-rule="evenodd" sketch:type="MSPage">
        <g id="Imported-Layers" sketch:type="MSLayerGroup" transform="translate(0.000000, -985.000000)" fill="#F9E93C">
            <path d="M0.591,1002.996 C0.778,993.321 8.582,985.518 18.258,985.329 L18.258,994.646 C13.724,994.829 10.09,998.464 9.906,1002.996 L0.591,1002.996" id="Fill-94" sketch:type="MSShapeGroup"></path>
            <path d="M0.591,1015.618 C0.777,1025.293 8.582,1033.096 18.257,1033.285 L18.257,1023.967 C13.724,1023.785 10.09,1020.15 9.905,1015.618 L0.591,1015.618" id="Fill-95" sketch:type="MSShapeGroup"></path>
            <path d="M37.58,1015.614 C37.391,1025.289 29.588,1033.092 19.913,1033.28 L19.913,1023.964 C24.446,1023.781 28.08,1020.147 28.264,1015.614 L37.58,1015.614" id="Fill-96" sketch:type="MSShapeGroup"></path>
            <path d="M37.58,1002.996 C37.391,993.321 29.588,985.518 19.913,985.329 L19.913,994.646 C24.446,994.829 28.08,998.464 28.264,1002.996 L37.58,1002.996" id="Fill-97" sketch:type="MSShapeGroup"></path>
            <path d="M0.59,1004.656 L9.898,1004.656 L9.898,1013.962 L0.59,1013.962 L0.59,1004.656 Z" id="Fill-98" sketch:type="MSShapeGroup"></path>
            <path d="M28.271,1004.652 L37.58,1004.652 L37.58,1013.959 L28.271,1013.959 L28.271,1004.652 Z" id="Fill-99" sketch:type="MSShapeGroup"></path>
            <path d="M83.817,1015.604 C83.63,1025.278 75.826,1033.082 66.151,1033.27 L66.151,1023.953 C70.683,1023.77 74.319,1020.136 74.502,1015.604 L83.817,1015.604" id="Fill-100" sketch:type="MSShapeGroup"></path>
            <path d="M66.155,1004.662 L83.812,1004.662 L83.812,1013.969 L66.155,1013.969 L66.155,1004.662 Z" id="Fill-101" sketch:type="MSShapeGroup"></path>
            <path d="M83.817,1003.006 C83.63,993.333 75.826,985.528 66.152,985.339 L66.152,994.657 C70.683,994.839 74.32,998.473 74.502,1003.006 L83.817,1003.006" id="Fill-102" sketch:type="MSShapeGroup"></path>
            <path d="M46.829,1003.006 C47.016,993.333 54.821,985.528 64.496,985.339 L64.496,994.657 C59.963,994.839 56.329,998.473 56.146,1003.006 L46.829,1003.006" id="Fill-103" sketch:type="MSShapeGroup"></path>
            <path d="M46.833,1004.662 L64.491,1004.662 L64.491,1013.969 L46.833,1013.969 L46.833,1004.662 Z" id="Fill-104" sketch:type="MSShapeGroup"></path>
            <path d="M46.838,1023.945 L64.495,1023.945 L64.495,1033.251 L46.838,1033.251 L46.838,1023.945 Z" id="Fill-105" sketch:type="MSShapeGroup"></path>
        </g>
    </g>
</svg>