<?xml version="1.0" encoding="UTF-8" standalone="no"?>
<svg width="67px" height="49px" viewBox="0 0 67 49" version="1.1" xmlns="http://www.w3.org/2000/svg" xmlns:xlink="http://www.w3.org/1999/xlink" xmlns:sketch="http://www.bohemiancoding.com/sketch/ns">
    <!-- Generator: Sketch 3.3.2 (12043) - http://www.bohemiancoding.com/sketch -->
    <title>Slice 9</title>
    <desc>Created with Sketch.</desc>
    <defs></defs>
    <g id="Page-1" stroke="none" stroke-width="1" fill="none" fill-rule="evenodd" sketch:type="MSPage">
        <g id="Imported-Layers" sketch:type="MSLayerGroup" transform="translate(-112.000000, -985.000000)" fill="#F9E93C">
            <path d="M141.902,1002.997 C142.089,993.323 149.893,985.519 159.568,985.331 L159.568,994.647 C155.035,994.831 151.401,998.465 151.219,1002.997 L141.902,1002.997" id="Fill-106" sketch:type="MSShapeGroup"></path>
            <path d="M141.902,1015.619 C142.088,1025.293 149.893,1033.096 159.568,1033.284 L159.568,1023.967 C155.035,1023.785 151.4,1020.151 151.217,1015.619 L141.902,1015.619" id="Fill-107" sketch:type="MSShapeGroup"></path>
            <path d="M178.891,1015.615 C178.703,1025.289 170.899,1033.093 161.224,1033.281 L161.224,1023.964 C165.757,1023.78 169.392,1020.147 169.575,1015.615 L178.891,1015.615" id="Fill-108" sketch:type="MSShapeGroup"></path>
            <path d="M178.891,1002.997 C178.703,993.323 170.899,985.519 161.224,985.331 L161.224,994.647 C165.757,994.831 169.392,998.465 169.575,1002.997 L178.891,1002.997" id="Fill-109" sketch:type="MSShapeGroup"></path>
            <path d="M141.902,1004.656 L151.209,1004.656 L151.209,1013.963 L141.902,1013.963 L141.902,1004.656 Z" id="Fill-110" sketch:type="MSShapeGroup"></path>
            <path d="M169.583,1004.652 L178.891,1004.652 L178.891,1013.959 L169.583,1013.959 L169.583,1004.652 Z" id="Fill-111" sketch:type="MSShapeGroup"></path>
            <path d="M123.238,1004.662 L132.544,1004.662 L132.544,1022.319 L123.238,1022.319 L123.238,1004.662 Z" id="Fill-112" sketch:type="MSShapeGroup"></path>
            <path d="M123.238,985.348 L132.544,985.348 L132.544,1003.006 L123.238,1003.006 L123.238,985.348 Z" id="Fill-113" sketch:type="MSShapeGroup"></path>
            <path d="M112.276,985.349 L121.583,985.349 L121.583,994.655 L112.276,994.655 L112.276,985.349 Z" id="Fill-114" sketch:type="MSShapeGroup"></path>
            <path d="M123.238,1023.965 L132.544,1023.965 L132.544,1033.272 L123.238,1033.272 L123.238,1023.965 Z" id="Fill-115" sketch:type="MSShapeGroup"></path>
        </g>
    </g>
</svg>