<?xml version="1.0" encoding="UTF-8" standalone="no"?>
<svg width="51px" height="49px" viewBox="0 0 51 49" version="1.1" xmlns="http://www.w3.org/2000/svg" xmlns:xlink="http://www.w3.org/1999/xlink" xmlns:sketch="http://www.bohemiancoding.com/sketch/ns">
    <!-- Generator: Sketch 3.3.2 (12043) - http://www.bohemiancoding.com/sketch -->
    <title>Slice 10</title>
    <desc>Created with Sketch.</desc>
    <defs></defs>
    <g id="Page-1" stroke="none" stroke-width="1" fill="none" fill-rule="evenodd" sketch:type="MSPage">
        <g id="Imported-Layers" sketch:type="MSLayerGroup" transform="translate(-223.000000, -985.000000)" fill="#F9E93C">
            <path d="M234.923,1004.673 L244.23,1004.673 L244.23,1022.33 L234.923,1022.33 L234.923,1004.673 Z" id="Fill-116" sketch:type="MSShapeGroup"></path>
            <path d="M234.923,985.36 L244.23,985.36 L244.23,1003.017 L234.923,1003.017 L234.923,985.36 Z" id="Fill-117" sketch:type="MSShapeGroup"></path>
            <path d="M223.961,985.36 L233.268,985.36 L233.268,994.666 L223.961,994.666 L223.961,985.36 Z" id="Fill-118" sketch:type="MSShapeGroup"></path>
            <path d="M234.923,1023.977 L244.23,1023.977 L244.23,1033.284 L234.923,1033.284 L234.923,1023.977 Z" id="Fill-119" sketch:type="MSShapeGroup"></path>
            <path d="M264.442,1004.673 L273.748,1004.673 L273.748,1022.33 L264.442,1022.33 L264.442,1004.673 Z" id="Fill-120" sketch:type="MSShapeGroup"></path>
            <path d="M264.442,985.36 L273.748,985.36 L273.748,1003.017 L264.442,1003.017 L264.442,985.36 Z" id="Fill-121" sketch:type="MSShapeGroup"></path>
            <path d="M253.479,985.36 L262.787,985.36 L262.787,994.666 L253.479,994.666 L253.479,985.36 Z" id="Fill-122" sketch:type="MSShapeGroup"></path>
            <path d="M264.441,1023.977 L273.747,1023.977 L273.747,1033.284 L264.441,1033.284 L264.441,1023.977 Z" id="Fill-123" sketch:type="MSShapeGroup"></path>
        </g>
    </g>
</svg>