<?xml version="1.0" encoding="UTF-8" standalone="no"?>
<svg width="61px" height="49px" viewBox="0 0 61 49" version="1.1" xmlns="http://www.w3.org/2000/svg" xmlns:xlink="http://www.w3.org/1999/xlink" xmlns:sketch="http://www.bohemiancoding.com/sketch/ns">
    <!-- Generator: Sketch 3.3.2 (12043) - http://www.bohemiancoding.com/sketch -->
    <title>Slice 11</title>
    <desc>Created with Sketch.</desc>
    <defs></defs>
    <g id="Page-1" stroke="none" stroke-width="1" fill="none" fill-rule="evenodd" sketch:type="MSPage">
        <g id="Imported-Layers" sketch:type="MSLayerGroup" transform="translate(-335.000000, -985.000000)" fill="#F9E93C">
            <path d="M346.609,1004.642 L355.915,1004.642 L355.915,1022.3 L346.609,1022.3 L346.609,1004.642 Z" id="Fill-124" sketch:type="MSShapeGroup"></path>
            <path d="M346.609,985.329 L355.915,985.329 L355.915,1002.986 L346.609,1002.986 L346.609,985.329 Z" id="Fill-125" sketch:type="MSShapeGroup"></path>
            <path d="M335.646,985.328 L344.953,985.328 L344.953,994.634 L335.646,994.634 L335.646,985.328 Z" id="Fill-126" sketch:type="MSShapeGroup"></path>
            <path d="M346.608,1023.945 L355.914,1023.945 L355.914,1033.251 L346.608,1033.251 L346.608,1023.945 Z" id="Fill-127" sketch:type="MSShapeGroup"></path>
            <path d="M366.742,1015.626 L376.048,1015.626 L376.048,1033.284 L366.742,1033.284 L366.742,1015.626 Z" id="Fill-128" sketch:type="MSShapeGroup"></path>
            <path d="M366.741,1004.642 L376.049,1004.642 L376.049,1013.949 L366.741,1013.949 L366.741,1004.642 Z" id="Fill-129" sketch:type="MSShapeGroup"></path>
            <path d="M395.366,1002.987 C395.179,993.313 387.375,985.509 377.7,985.322 L377.7,994.637 C382.233,994.821 385.868,998.455 386.05,1002.987 L395.366,1002.987" id="Fill-130" sketch:type="MSShapeGroup"></path>
            <path d="M377.705,1004.642 L395.363,1004.642 L395.363,1013.949 L377.705,1013.949 L377.705,1004.642 Z" id="Fill-131" sketch:type="MSShapeGroup"></path>
            <path d="M366.742,985.36 L376.049,985.36 L376.049,994.667 L366.742,994.667 L366.742,985.36 Z" id="Fill-132" sketch:type="MSShapeGroup"></path>
            <path d="M377.705,1023.978 L395.363,1023.978 L395.363,1033.284 L377.705,1033.284 L377.705,1023.978 Z" id="Fill-133" sketch:type="MSShapeGroup"></path>
        </g>
    </g>
</svg>