<?xml version="1.0" encoding="UTF-8" standalone="no"?>
<svg width="61px" height="49px" viewBox="0 0 61 49" version="1.1" xmlns="http://www.w3.org/2000/svg" xmlns:xlink="http://www.w3.org/1999/xlink" xmlns:sketch="http://www.bohemiancoding.com/sketch/ns">
    <!-- Generator: Sketch 3.3.2 (12043) - http://www.bohemiancoding.com/sketch -->
    <title>Slice 12</title>
    <desc>Created with Sketch.</desc>
    <defs></defs>
    <g id="Page-1" stroke="none" stroke-width="1" fill="none" fill-rule="evenodd" sketch:type="MSPage">
        <g id="Imported-Layers" sketch:type="MSLayerGroup" transform="translate(0.000000, -1113.000000)" fill="#F9E93C">
            <path d="M11.553,1132.674 L20.859,1132.674 L20.859,1150.331 L11.553,1150.331 L11.553,1132.674 Z" id="Fill-134" sketch:type="MSShapeGroup"></path>
            <path d="M11.553,1113.362 L20.859,1113.362 L20.859,1131.019 L11.553,1131.019 L11.553,1113.362 Z" id="Fill-135" sketch:type="MSShapeGroup"></path>
            <path d="M0.591,1113.362 L9.898,1113.362 L9.898,1122.667 L0.591,1122.667 L0.591,1113.362 Z" id="Fill-136" sketch:type="MSShapeGroup"></path>
            <path d="M11.553,1151.977 L20.859,1151.977 L20.859,1161.284 L11.553,1161.284 L11.553,1151.977 Z" id="Fill-137" sketch:type="MSShapeGroup"></path>
            <path d="M31.687,1151.971 L40.994,1151.971 L40.994,1161.277 L31.687,1161.277 L31.687,1151.971 Z" id="Fill-138" sketch:type="MSShapeGroup"></path>
            <path d="M60.317,1130.98 C60.128,1121.306 52.325,1113.502 42.65,1113.314 L42.65,1122.631 C47.182,1122.813 50.818,1126.447 50.999,1130.98 L60.317,1130.98" id="Fill-139" sketch:type="MSShapeGroup"></path>
            <path d="M42.654,1132.636 L60.312,1132.636 L60.312,1141.942 L42.654,1141.942 L42.654,1132.636 Z" id="Fill-140" sketch:type="MSShapeGroup"></path>
            <path d="M42.65,1161.277 C52.325,1161.091 60.128,1153.286 60.317,1143.612 L50.998,1143.612 C50.818,1148.143 47.182,1151.779 42.65,1151.962 L42.65,1161.277" id="Fill-141" sketch:type="MSShapeGroup"></path>
            <path d="M31.687,1113.354 L40.994,1113.354 L40.994,1122.66 L31.687,1122.66 L31.687,1113.354 Z" id="Fill-142" sketch:type="MSShapeGroup"></path>
        </g>
    </g>
</svg>