<?xml version="1.0" encoding="UTF-8" standalone="no"?>
<svg width="70px" height="49px" viewBox="0 0 70 49" version="1.1" xmlns="http://www.w3.org/2000/svg" xmlns:xlink="http://www.w3.org/1999/xlink" xmlns:sketch="http://www.bohemiancoding.com/sketch/ns">
    <!-- Generator: Sketch 3.3.2 (12043) - http://www.bohemiancoding.com/sketch -->
    <title>Slice 13</title>
    <desc>Created with Sketch.</desc>
    <defs></defs>
    <g id="Page-1" stroke="none" stroke-width="1" fill="none" fill-rule="evenodd" sketch:type="MSPage">
        <g id="Imported-Layers" sketch:type="MSLayerGroup" transform="translate(-112.000000, -1113.000000)" fill="#F9E93C">
            <path d="M123.236,1132.667 L132.543,1132.667 L132.543,1150.325 L123.236,1150.325 L123.236,1132.667 Z" id="Fill-143" sketch:type="MSShapeGroup"></path>
            <path d="M123.236,1113.355 L132.543,1113.355 L132.543,1131.012 L123.236,1131.012 L123.236,1113.355 Z" id="Fill-144" sketch:type="MSShapeGroup"></path>
            <path d="M112.275,1113.355 L121.582,1113.355 L121.582,1122.661 L112.275,1122.661 L112.275,1113.355 Z" id="Fill-145" sketch:type="MSShapeGroup"></path>
            <path d="M123.236,1151.971 L132.543,1151.971 L132.543,1161.278 L123.236,1161.278 L123.236,1151.971 Z" id="Fill-146" sketch:type="MSShapeGroup"></path>
            <path d="M161.633,1132.663 L170.938,1132.663 L170.938,1150.321 L161.633,1150.321 L161.633,1132.663 Z" id="Fill-147" sketch:type="MSShapeGroup"></path>
            <path d="M161.633,1113.349 L170.94,1113.349 L170.94,1131.007 L161.633,1131.007 L161.633,1113.349 Z" id="Fill-148" sketch:type="MSShapeGroup"></path>
            <path d="M142.321,1132.663 L159.978,1132.663 L159.978,1141.969 L142.321,1141.969 L142.321,1132.663 Z" id="Fill-149" sketch:type="MSShapeGroup"></path>
            <path d="M172.595,1132.663 L181.903,1132.663 L181.903,1141.969 L172.595,1141.969 L172.595,1132.663 Z" id="Fill-150" sketch:type="MSShapeGroup"></path>
            <path d="M161.633,1151.977 L170.94,1151.977 L170.94,1161.284 L161.633,1161.284 L161.633,1151.977 Z" id="Fill-151" sketch:type="MSShapeGroup"></path>
            <path d="M142.319,1113.349 L151.626,1113.349 L151.626,1131.007 L142.319,1131.007 L142.319,1113.349 Z" id="Fill-152" sketch:type="MSShapeGroup"></path>
        </g>
    </g>
</svg>