<?xml version="1.0" encoding="UTF-8" standalone="no"?>
<svg width="61px" height="49px" viewBox="0 0 61 49" version="1.1" xmlns="http://www.w3.org/2000/svg" xmlns:xlink="http://www.w3.org/1999/xlink" xmlns:sketch="http://www.bohemiancoding.com/sketch/ns">
    <!-- Generator: Sketch 3.3.2 (12043) - http://www.bohemiancoding.com/sketch -->
    <title>Slice 14</title>
    <desc>Created with Sketch.</desc>
    <defs></defs>
    <g id="Page-1" stroke="none" stroke-width="1" fill="none" fill-rule="evenodd" sketch:type="MSPage">
        <g id="Imported-Layers" sketch:type="MSLayerGroup" transform="translate(-223.000000, -1113.000000)" fill="#F9E93C">
            <path d="M234.923,1132.674 L244.23,1132.674 L244.23,1150.331 L234.923,1150.331 L234.923,1132.674 Z" id="Fill-153" sketch:type="MSShapeGroup"></path>
            <path d="M234.923,1113.361 L244.23,1113.361 L244.23,1131.018 L234.923,1131.018 L234.923,1113.361 Z" id="Fill-154" sketch:type="MSShapeGroup"></path>
            <path d="M223.961,1113.361 L233.268,1113.361 L233.268,1122.667 L223.961,1122.667 L223.961,1113.361 Z" id="Fill-155" sketch:type="MSShapeGroup"></path>
            <path d="M234.923,1151.977 L244.23,1151.977 L244.23,1161.284 L234.923,1161.284 L234.923,1151.977 Z" id="Fill-156" sketch:type="MSShapeGroup"></path>
            <path d="M255.062,1113.324 L264.368,1113.324 L264.368,1130.982 L255.062,1130.982 L255.062,1113.324 Z" id="Fill-157" sketch:type="MSShapeGroup"></path>
            <path d="M255.061,1132.637 L264.368,1132.637 L264.368,1141.944 L255.061,1141.944 L255.061,1132.637 Z" id="Fill-158" sketch:type="MSShapeGroup"></path>
            <path d="M283.686,1143.601 C283.499,1153.275 275.694,1161.079 266.02,1161.266 L266.02,1151.95 C270.552,1151.766 274.187,1148.133 274.369,1143.601 L283.686,1143.601" id="Fill-159" sketch:type="MSShapeGroup"></path>
            <path d="M266.024,1132.637 L283.683,1132.637 L283.683,1141.944 L266.024,1141.944 L266.024,1132.637 Z" id="Fill-160" sketch:type="MSShapeGroup"></path>
            <path d="M255.057,1151.941 L264.363,1151.941 L264.363,1161.247 L255.057,1161.247 L255.057,1151.941 Z" id="Fill-161" sketch:type="MSShapeGroup"></path>
            <path d="M266.023,1113.324 L283.682,1113.324 L283.682,1122.63 L266.023,1122.63 L266.023,1113.324 Z" id="Fill-162" sketch:type="MSShapeGroup"></path>
        </g>
    </g>
</svg>