<?xml version="1.0" encoding="UTF-8" standalone="no"?>
<svg width="69px" height="49px" viewBox="0 0 69 49" version="1.1" xmlns="http://www.w3.org/2000/svg" xmlns:xlink="http://www.w3.org/1999/xlink" xmlns:sketch="http://www.bohemiancoding.com/sketch/ns">
    <!-- Generator: Sketch 3.3.2 (12043) - http://www.bohemiancoding.com/sketch -->
    <title>Slice 15</title>
    <desc>Created with Sketch.</desc>
    <defs></defs>
    <g id="Page-1" stroke="none" stroke-width="1" fill="none" fill-rule="evenodd" sketch:type="MSPage">
        <g id="Imported-Layers" sketch:type="MSLayerGroup" transform="translate(-335.000000, -1113.000000)" fill="#F9E93C">
            <path d="M346.609,1132.675 L355.915,1132.675 L355.915,1150.332 L346.609,1150.332 L346.609,1132.675 Z" id="Fill-163" sketch:type="MSShapeGroup"></path>
            <path d="M346.609,1113.361 L355.915,1113.361 L355.915,1131.019 L346.609,1131.019 L346.609,1113.361 Z" id="Fill-164" sketch:type="MSShapeGroup"></path>
            <path d="M335.646,1113.361 L344.953,1113.361 L344.953,1122.668 L335.646,1122.668 L335.646,1113.361 Z" id="Fill-165" sketch:type="MSShapeGroup"></path>
            <path d="M346.608,1151.978 L355.914,1151.978 L355.914,1161.284 L346.608,1161.284 L346.608,1151.978 Z" id="Fill-166" sketch:type="MSShapeGroup"></path>
            <path d="M366.372,1131.002 C366.56,1121.327 374.364,1113.523 384.039,1113.336 L384.039,1122.652 C379.505,1122.835 375.871,1126.469 375.689,1131.002 L366.372,1131.002" id="Fill-167" sketch:type="MSShapeGroup"></path>
            <path d="M366.377,1132.636 L384.034,1132.636 L384.034,1141.943 L366.377,1141.943 L366.377,1132.636 Z" id="Fill-168" sketch:type="MSShapeGroup"></path>
            <path d="M366.373,1143.599 C366.56,1153.273 374.365,1161.077 384.039,1161.266 L384.039,1151.948 C379.506,1151.766 375.871,1148.131 375.689,1143.599 L366.373,1143.599" id="Fill-169" sketch:type="MSShapeGroup"></path>
            <path d="M403.361,1143.599 C403.174,1153.273 395.369,1161.077 385.695,1161.266 L385.695,1151.948 C390.227,1151.766 393.862,1148.131 394.044,1143.599 L403.361,1143.599" id="Fill-170" sketch:type="MSShapeGroup"></path>
            <path d="M385.699,1132.636 L403.356,1132.636 L403.356,1141.943 L385.699,1141.943 L385.699,1132.636 Z" id="Fill-171" sketch:type="MSShapeGroup"></path>
            <path d="M386.23,1113.365 L403.888,1113.365 L403.888,1122.672 L386.23,1122.672 L386.23,1113.365 Z" id="Fill-172" sketch:type="MSShapeGroup"></path>
        </g>
    </g>
</svg>