<?xml version="1.0" encoding="UTF-8" standalone="no"?>
<svg width="70px" height="49px" viewBox="0 0 70 49" version="1.1" xmlns="http://www.w3.org/2000/svg" xmlns:xlink="http://www.w3.org/1999/xlink" xmlns:sketch="http://www.bohemiancoding.com/sketch/ns">
    <!-- Generator: Sketch 3.3.2 (12043) - http://www.bohemiancoding.com/sketch -->
    <title>Slice 16</title>
    <desc>Created with Sketch.</desc>
    <defs></defs>
    <g id="Page-1" stroke="none" stroke-width="1" fill="none" fill-rule="evenodd" sketch:type="MSPage">
        <g id="Imported-Layers" sketch:type="MSLayerGroup" transform="translate(0.000000, -1241.000000)" fill="#F9E93C">
            <path d="M11.553,1260.663 L20.859,1260.663 L20.859,1278.32 L11.553,1278.32 L11.553,1260.663 Z" id="Fill-173" sketch:type="MSShapeGroup"></path>
            <path d="M11.553,1241.349 L20.859,1241.349 L20.859,1259.007 L11.553,1259.007 L11.553,1241.349 Z" id="Fill-174" sketch:type="MSShapeGroup"></path>
            <path d="M0.591,1241.349 L9.898,1241.349 L9.898,1250.656 L0.591,1250.656 L0.591,1241.349 Z" id="Fill-175" sketch:type="MSShapeGroup"></path>
            <path d="M11.553,1279.967 L20.859,1279.967 L20.859,1289.274 L11.553,1289.274 L11.553,1279.967 Z" id="Fill-176" sketch:type="MSShapeGroup"></path>
            <path d="M49.424,1241.351 L58.73,1241.351 L58.73,1259.008 L49.424,1259.008 L49.424,1241.351 Z" id="Fill-177" sketch:type="MSShapeGroup"></path>
            <path d="M49.424,1271.626 L58.73,1271.626 L58.73,1289.284 L49.424,1289.284 L49.424,1271.626 Z" id="Fill-178" sketch:type="MSShapeGroup"></path>
            <path d="M30.109,1241.351 L47.766,1241.351 L47.766,1250.657 L30.109,1250.657 L30.109,1241.351 Z" id="Fill-179" sketch:type="MSShapeGroup"></path>
            <path d="M49.424,1260.664 L58.73,1260.664 L58.73,1269.971 L49.424,1269.971 L49.424,1260.664 Z" id="Fill-180" sketch:type="MSShapeGroup"></path>
            <path d="M38.461,1260.664 L47.768,1260.664 L47.768,1269.971 L38.461,1269.971 L38.461,1260.664 Z" id="Fill-181" sketch:type="MSShapeGroup"></path>
            <path d="M60.385,1260.664 L69.692,1260.664 L69.692,1269.971 L60.385,1269.971 L60.385,1260.664 Z" id="Fill-182" sketch:type="MSShapeGroup"></path>
        </g>
    </g>
</svg>