<?xml version="1.0" encoding="UTF-8" standalone="no"?>
<svg width="67px" height="49px" viewBox="0 0 67 49" version="1.1" xmlns="http://www.w3.org/2000/svg" xmlns:xlink="http://www.w3.org/1999/xlink" xmlns:sketch="http://www.bohemiancoding.com/sketch/ns">
    <!-- Generator: Sketch 3.3.2 (12043) - http://www.bohemiancoding.com/sketch -->
    <title>Slice 17</title>
    <desc>Created with Sketch.</desc>
    <defs></defs>
    <g id="Page-1" stroke="none" stroke-width="1" fill="none" fill-rule="evenodd" sketch:type="MSPage">
        <g id="Imported-Layers" sketch:type="MSLayerGroup" transform="translate(-112.000000, -1241.000000)" fill="#F9E93C">
            <path d="M123.236,1260.638 L132.543,1260.638 L132.543,1278.296 L123.236,1278.296 L123.236,1260.638 Z" id="Fill-183" sketch:type="MSShapeGroup"></path>
            <path d="M123.236,1241.325 L132.543,1241.325 L132.543,1258.982 L123.236,1258.982 L123.236,1241.325 Z" id="Fill-184" sketch:type="MSShapeGroup"></path>
            <path d="M112.275,1241.324 L121.582,1241.324 L121.582,1250.631 L112.275,1250.631 L112.275,1241.324 Z" id="Fill-185" sketch:type="MSShapeGroup"></path>
            <path d="M123.236,1279.942 L132.543,1279.942 L132.543,1289.248 L123.236,1289.248 L123.236,1279.942 Z" id="Fill-186" sketch:type="MSShapeGroup"></path>
            <path d="M141.792,1259 C141.982,1249.326 149.784,1241.522 159.46,1241.334 L159.46,1250.651 C154.928,1250.834 151.293,1254.469 151.11,1259 L141.792,1259" id="Fill-187" sketch:type="MSShapeGroup"></path>
            <path d="M141.796,1260.656 L159.454,1260.656 L159.454,1269.962 L141.796,1269.962 L141.796,1260.656 Z" id="Fill-188" sketch:type="MSShapeGroup"></path>
            <path d="M141.792,1271.617 C141.982,1281.292 149.784,1289.096 159.458,1289.284 L159.458,1279.967 C154.928,1279.784 151.292,1276.151 151.108,1271.617 L141.792,1271.617" id="Fill-189" sketch:type="MSShapeGroup"></path>
            <path d="M178.774,1271.617 C178.586,1281.292 170.783,1289.096 161.106,1289.284 L161.106,1279.967 C165.639,1279.784 169.273,1276.151 169.458,1271.617 L178.774,1271.617" id="Fill-190" sketch:type="MSShapeGroup"></path>
            <path d="M161.12,1260.656 L178.778,1260.656 L178.778,1269.962 L161.12,1269.962 L161.12,1260.656 Z" id="Fill-191" sketch:type="MSShapeGroup"></path>
            <path d="M178.783,1259 C178.594,1249.326 170.791,1241.522 161.115,1241.334 L161.115,1250.651 C165.647,1250.834 169.282,1254.469 169.467,1259 L178.783,1259" id="Fill-192" sketch:type="MSShapeGroup"></path>
        </g>
    </g>
</svg>