<?xml version="1.0" encoding="UTF-8" standalone="no"?>
<svg width="68px" height="49px" viewBox="0 0 68 49" version="1.1" xmlns="http://www.w3.org/2000/svg" xmlns:xlink="http://www.w3.org/1999/xlink" xmlns:sketch="http://www.bohemiancoding.com/sketch/ns">
    <!-- Generator: Sketch 3.3.2 (12043) - http://www.bohemiancoding.com/sketch -->
    <title>Slice 18</title>
    <desc>Created with Sketch.</desc>
    <defs></defs>
    <g id="Page-1" stroke="none" stroke-width="1" fill="none" fill-rule="evenodd" sketch:type="MSPage">
        <g id="Imported-Layers" sketch:type="MSLayerGroup" transform="translate(-223.000000, -1241.000000)" fill="#F9E93C">
            <path d="M234.923,1260.598 L244.23,1260.598 L244.23,1278.256 L234.923,1278.256 L234.923,1260.598 Z" id="Fill-193" sketch:type="MSShapeGroup"></path>
            <path d="M234.923,1241.285 L244.23,1241.285 L244.23,1258.943 L234.923,1258.943 L234.923,1241.285 Z" id="Fill-194" sketch:type="MSShapeGroup"></path>
            <path d="M223.961,1241.285 L233.268,1241.285 L233.268,1250.592 L223.961,1250.592 L223.961,1241.285 Z" id="Fill-195" sketch:type="MSShapeGroup"></path>
            <path d="M234.923,1279.901 L244.23,1279.901 L244.23,1289.208 L234.923,1289.208 L234.923,1279.901 Z" id="Fill-196" sketch:type="MSShapeGroup"></path>
            <path d="M290.472,1271.601 C290.284,1281.276 282.48,1289.08 272.805,1289.267 L272.805,1279.951 C277.338,1279.767 280.972,1276.133 281.155,1271.601 L290.472,1271.601" id="Fill-197" sketch:type="MSShapeGroup"></path>
            <path d="M272.809,1260.659 L290.467,1260.659 L290.467,1269.967 L272.809,1269.967 L272.809,1260.659 Z" id="Fill-198" sketch:type="MSShapeGroup"></path>
            <path d="M290.471,1259.003 C290.284,1249.328 282.479,1241.525 272.805,1241.338 L272.805,1250.654 C277.337,1250.837 280.973,1254.471 281.155,1259.003 L290.471,1259.003" id="Fill-199" sketch:type="MSShapeGroup"></path>
            <path d="M253.483,1259.003 C253.67,1249.328 261.476,1241.525 271.15,1241.338 L271.15,1250.654 C266.616,1250.837 262.983,1254.471 262.8,1259.003 L253.483,1259.003" id="Fill-200" sketch:type="MSShapeGroup"></path>
            <path d="M253.488,1260.659 L271.144,1260.659 L271.144,1269.967 L253.488,1269.967 L253.488,1260.659 Z" id="Fill-201" sketch:type="MSShapeGroup"></path>
            <path d="M253.492,1279.942 L271.149,1279.942 L271.149,1289.248 L253.492,1289.248 L253.492,1279.942 Z" id="Fill-202" sketch:type="MSShapeGroup"></path>
        </g>
    </g>
</svg>