<?xml version="1.0" encoding="UTF-8" standalone="no"?>
<svg width="76px" height="49px" viewBox="0 0 76 49" version="1.1" xmlns="http://www.w3.org/2000/svg" xmlns:xlink="http://www.w3.org/1999/xlink" xmlns:sketch="http://www.bohemiancoding.com/sketch/ns">
    <!-- Generator: Sketch 3.3.2 (12043) - http://www.bohemiancoding.com/sketch -->
    <title>Slice 19</title>
    <desc>Created with Sketch.</desc>
    <defs></defs>
    <g id="Page-1" stroke="none" stroke-width="1" fill="none" fill-rule="evenodd" sketch:type="MSPage">
        <g id="Imported-Layers" sketch:type="MSLayerGroup" transform="translate(-335.000000, -1241.000000)" fill="#F9E93C">
            <path d="M335.646,1271.627 L344.953,1271.627 L344.953,1289.284 L335.646,1289.284 L335.646,1271.627 Z" id="Fill-203" sketch:type="MSShapeGroup"></path>
            <path d="M335.645,1260.643 L344.952,1260.643 L344.952,1269.95 L335.645,1269.95 L335.645,1260.643 Z" id="Fill-204" sketch:type="MSShapeGroup"></path>
            <path d="M364.27,1258.988 C364.083,1249.314 356.279,1241.511 346.604,1241.322 L346.604,1250.639 C351.136,1250.821 354.771,1254.456 354.954,1258.988 L364.27,1258.988" id="Fill-205" sketch:type="MSShapeGroup"></path>
            <path d="M346.609,1260.643 L364.266,1260.643 L364.266,1269.95 L346.609,1269.95 L346.609,1260.643 Z" id="Fill-206" sketch:type="MSShapeGroup"></path>
            <path d="M335.646,1241.362 L344.953,1241.362 L344.953,1250.669 L335.646,1250.669 L335.646,1241.362 Z" id="Fill-207" sketch:type="MSShapeGroup"></path>
            <path d="M346.609,1279.978 L364.266,1279.978 L364.266,1289.284 L346.609,1289.284 L346.609,1279.978 Z" id="Fill-208" sketch:type="MSShapeGroup"></path>
            <path d="M373.516,1258.984 C373.702,1249.31 381.507,1241.506 391.182,1241.319 L391.182,1250.635 C386.649,1250.817 383.015,1254.452 382.831,1258.984 L373.516,1258.984" id="Fill-209" sketch:type="MSShapeGroup"></path>
            <path d="M373.516,1271.607 C373.702,1281.282 381.507,1289.085 391.181,1289.272 L391.181,1279.956 C386.649,1279.774 383.014,1276.139 382.83,1271.607 L373.516,1271.607" id="Fill-210" sketch:type="MSShapeGroup"></path>
            <path d="M410.504,1271.603 C410.317,1281.277 402.513,1289.081 392.838,1289.269 L392.838,1279.952 C397.372,1279.77 401.005,1276.135 401.188,1271.603 L410.504,1271.603" id="Fill-211" sketch:type="MSShapeGroup"></path>
            <path d="M410.504,1258.984 C410.317,1249.31 402.513,1241.506 392.838,1241.319 L392.838,1250.635 C397.372,1250.817 401.005,1254.452 401.188,1258.984 L410.504,1258.984" id="Fill-212" sketch:type="MSShapeGroup"></path>
            <path d="M373.516,1260.643 L382.823,1260.643 L382.823,1269.95 L373.516,1269.95 L373.516,1260.643 Z" id="Fill-213" sketch:type="MSShapeGroup"></path>
            <path d="M401.197,1260.64 L410.504,1260.64 L410.504,1269.946 L401.197,1269.946 L401.197,1260.64 Z" id="Fill-214" sketch:type="MSShapeGroup"></path>
        </g>
    </g>
</svg>