<?xml version="1.0" encoding="UTF-8" standalone="no"?>
<svg width="59px" height="49px" viewBox="0 0 59 49" version="1.1" xmlns="http://www.w3.org/2000/svg" xmlns:xlink="http://www.w3.org/1999/xlink" xmlns:sketch="http://www.bohemiancoding.com/sketch/ns">
    <!-- Generator: Sketch 3.3.2 (12043) - http://www.bohemiancoding.com/sketch -->
    <title>Slice 20</title>
    <desc>Created with Sketch.</desc>
    <defs></defs>
    <g id="Page-1" stroke="none" stroke-width="1" fill="none" fill-rule="evenodd" sketch:type="MSPage">
        <g id="Imported-Layers" sketch:type="MSLayerGroup" transform="translate(-121.000000, -2.000000)" fill="#F9E93C">
            <path d="M121.611,33.173 L130.918,33.173 L130.918,50.831 L121.611,50.831 L121.611,33.173 Z" id="Fill-217" sketch:type="MSShapeGroup"></path>
            <path d="M121.61,22.188 L130.917,22.188 L130.917,31.496 L121.61,31.496 L121.61,22.188 Z" id="Fill-218" sketch:type="MSShapeGroup"></path>
            <path d="M150.235,20.533 C150.048,10.859 142.244,3.055 132.569,2.868 L132.569,12.183 C137.101,12.367 140.736,16.001 140.918,20.533 L150.235,20.533" id="Fill-219" sketch:type="MSShapeGroup"></path>
            <path d="M132.573,22.188 L150.23,22.188 L150.23,31.496 L132.573,31.496 L132.573,22.188 Z" id="Fill-220" sketch:type="MSShapeGroup"></path>
            <path d="M121.611,2.907 L130.918,2.907 L130.918,12.214 L121.611,12.214 L121.611,2.907 Z" id="Fill-221" sketch:type="MSShapeGroup"></path>
            <path d="M132.573,41.524 L150.23,41.524 L150.23,50.831 L132.573,50.831 L132.573,41.524 Z" id="Fill-222" sketch:type="MSShapeGroup"></path>
            <path d="M170.448,22.194 L179.753,22.194 L179.753,39.851 L170.448,39.851 L170.448,22.194 Z" id="Fill-223" sketch:type="MSShapeGroup"></path>
            <path d="M170.448,2.881 L179.753,2.881 L179.753,20.539 L170.448,20.539 L170.448,2.881 Z" id="Fill-224" sketch:type="MSShapeGroup"></path>
            <path d="M159.486,2.881 L168.793,2.881 L168.793,12.188 L159.486,12.188 L159.486,2.881 Z" id="Fill-225" sketch:type="MSShapeGroup"></path>
            <path d="M170.448,41.497 L179.753,41.497 L179.753,50.804 L170.448,50.804 L170.448,41.497 Z" id="Fill-226" sketch:type="MSShapeGroup"></path>
        </g>
    </g>
</svg>