<?xml version="1.0" encoding="UTF-8" standalone="no"?>
<svg width="67px" height="48px" viewBox="0 0 67 48" version="1.1" xmlns="http://www.w3.org/2000/svg" xmlns:xlink="http://www.w3.org/1999/xlink" xmlns:sketch="http://www.bohemiancoding.com/sketch/ns">
    <!-- Generator: Sketch 3.3.2 (12043) - http://www.bohemiancoding.com/sketch -->
    <title>Slice 36</title>
    <desc>Created with Sketch.</desc>
    <defs></defs>
    <g id="Page-1" stroke="none" stroke-width="1" fill="none" fill-rule="evenodd" sketch:type="MSPage">
        <g id="Imported-Layers" sketch:type="MSLayerGroup" transform="translate(-714.000000, -512.000000)" fill="#F9E93C">
            <path d="M714.4,542.341 L723.706,542.341 L723.706,559.998 L714.4,559.998 L714.4,542.341 Z" id="Fill-227" sketch:type="MSShapeGroup"></path>
            <path d="M714.4,531.357 L723.706,531.357 L723.706,540.664 L714.4,540.664 L714.4,531.357 Z" id="Fill-228" sketch:type="MSShapeGroup"></path>
            <path d="M743.022,529.702 C742.837,520.028 735.031,512.224 725.357,512.036 L725.357,521.352 C729.89,521.534 733.524,525.17 733.707,529.702 L743.022,529.702" id="Fill-229" sketch:type="MSShapeGroup"></path>
            <path d="M725.361,531.357 L743.018,531.357 L743.018,540.664 L725.361,540.664 L725.361,531.357 Z" id="Fill-230" sketch:type="MSShapeGroup"></path>
            <path d="M714.4,512.076 L723.706,512.076 L723.706,521.383 L714.4,521.383 L714.4,512.076 Z" id="Fill-231" sketch:type="MSShapeGroup"></path>
            <path d="M725.361,550.692 L743.018,550.692 L743.018,559.998 L725.361,559.998 L725.361,550.692 Z" id="Fill-232" sketch:type="MSShapeGroup"></path>
            <path d="M752.274,542.335 L761.58,542.335 L761.58,559.992 L752.274,559.992 L752.274,542.335 Z" id="Fill-233" sketch:type="MSShapeGroup"></path>
            <path d="M752.274,531.351 L761.58,531.351 L761.58,540.657 L752.274,540.657 L752.274,531.351 Z" id="Fill-234" sketch:type="MSShapeGroup"></path>
            <path d="M780.898,529.695 C780.711,520.021 772.907,512.218 763.233,512.03 L763.233,521.346 C767.763,521.528 771.399,525.164 771.582,529.695 L780.898,529.695" id="Fill-235" sketch:type="MSShapeGroup"></path>
            <path d="M763.237,531.351 L780.894,531.351 L780.894,540.657 L763.237,540.657 L763.237,531.351 Z" id="Fill-236" sketch:type="MSShapeGroup"></path>
            <path d="M752.274,512.069 L761.58,512.069 L761.58,521.375 L752.274,521.375 L752.274,512.069 Z" id="Fill-237" sketch:type="MSShapeGroup"></path>
            <path d="M763.237,550.686 L780.894,550.686 L780.894,559.992 L763.237,559.992 L763.237,550.686 Z" id="Fill-238" sketch:type="MSShapeGroup"></path>
        </g>
    </g>
</svg>