<?xml version="1.0" encoding="UTF-8" standalone="no"?>
<svg width="67px" height="48px" viewBox="0 0 67 48" version="1.1" xmlns="http://www.w3.org/2000/svg" xmlns:xlink="http://www.w3.org/1999/xlink" xmlns:sketch="http://www.bohemiancoding.com/sketch/ns">
    <!-- Generator: Sketch 3.3.2 (12043) - http://www.bohemiancoding.com/sketch -->
    <title>Slice 21</title>
    <desc>Created with Sketch.</desc>
    <defs></defs>
    <g id="Page-1" stroke="none" stroke-width="1" fill="none" fill-rule="evenodd" sketch:type="MSPage">
        <g id="Imported-Layers" sketch:type="MSLayerGroup" transform="translate(-233.000000, 0.000000)" fill="#F9E93C">
            <path d="M233.296,30.337 L242.602,30.337 L242.602,47.995 L233.296,47.995 L233.296,30.337 Z" id="Fill-239" sketch:type="MSShapeGroup"></path>
            <path d="M233.295,19.354 L242.601,19.354 L242.601,28.66 L233.295,28.66 L233.295,19.354 Z" id="Fill-240" sketch:type="MSShapeGroup"></path>
            <path d="M261.92,17.697 C261.732,8.023 253.929,0.22 244.254,0.032 L244.254,9.348 C248.787,9.531 252.421,13.166 252.603,17.697 L261.92,17.697" id="Fill-241" sketch:type="MSShapeGroup"></path>
            <path d="M244.257,19.354 L261.916,19.354 L261.916,28.66 L244.257,28.66 L244.257,19.354 Z" id="Fill-242" sketch:type="MSShapeGroup"></path>
            <path d="M233.296,0.071 L242.602,0.071 L242.602,9.378 L233.296,9.378 L233.296,0.071 Z" id="Fill-243" sketch:type="MSShapeGroup"></path>
            <path d="M244.257,38.688 L261.916,38.688 L261.916,47.995 L244.257,47.995 L244.257,38.688 Z" id="Fill-244" sketch:type="MSShapeGroup"></path>
            <path d="M271.167,38.682 L280.473,38.682 L280.473,47.988 L271.167,47.988 L271.167,38.682 Z" id="Fill-245" sketch:type="MSShapeGroup"></path>
            <path d="M299.795,17.691 C299.608,8.016 291.803,0.213 282.129,0.025 L282.129,9.341 C286.661,9.524 290.296,13.159 290.478,17.691 L299.795,17.691" id="Fill-246" sketch:type="MSShapeGroup"></path>
            <path d="M282.133,19.346 L299.79,19.346 L299.79,28.653 L282.133,28.653 L282.133,19.346 Z" id="Fill-247" sketch:type="MSShapeGroup"></path>
            <path d="M282.129,47.988 C291.803,47.802 299.608,39.998 299.795,30.323 L290.478,30.323 C290.296,34.855 286.662,38.49 282.129,38.673 L282.129,47.988" id="Fill-248" sketch:type="MSShapeGroup"></path>
            <path d="M271.167,0.065 L280.473,0.065 L280.473,9.372 L271.167,9.372 L271.167,0.065 Z" id="Fill-249" sketch:type="MSShapeGroup"></path>
        </g>
    </g>
</svg>