<?xml version="1.0" encoding="UTF-8" standalone="no"?>
<svg width="80px" height="48px" viewBox="0 0 80 48" version="1.1" xmlns="http://www.w3.org/2000/svg" xmlns:xlink="http://www.w3.org/1999/xlink" xmlns:sketch="http://www.bohemiancoding.com/sketch/ns">
    <!-- Generator: Sketch 3.3.2 (12043) - http://www.bohemiancoding.com/sketch -->
    <title>Slice 22</title>
    <desc>Created with Sketch.</desc>
    <defs></defs>
    <g id="Page-1" stroke="none" stroke-width="1" fill="none" fill-rule="evenodd" sketch:type="MSPage">
        <g id="Imported-Layers" sketch:type="MSLayerGroup" transform="translate(-344.000000, 0.000000)" fill="#F9E93C">
            <path d="M344.981,30.335 L354.288,30.335 L354.288,47.993 L344.981,47.993 L344.981,30.335 Z" id="Fill-250" sketch:type="MSShapeGroup"></path>
            <path d="M344.98,19.352 L354.287,19.352 L354.287,28.658 L344.98,28.658 L344.98,19.352 Z" id="Fill-251" sketch:type="MSShapeGroup"></path>
            <path d="M373.605,17.696 C373.418,8.022 365.614,0.219 355.939,0.03 L355.939,9.347 C360.471,9.529 364.106,13.164 364.289,17.696 L373.605,17.696" id="Fill-252" sketch:type="MSShapeGroup"></path>
            <path d="M355.944,19.352 L373.601,19.352 L373.601,28.658 L355.944,28.658 L355.944,19.352 Z" id="Fill-253" sketch:type="MSShapeGroup"></path>
            <path d="M344.981,0.07 L354.288,0.07 L354.288,9.377 L344.981,9.377 L344.981,0.07 Z" id="Fill-254" sketch:type="MSShapeGroup"></path>
            <path d="M355.944,38.686 L373.601,38.686 L373.601,47.993 L355.944,47.993 L355.944,38.686 Z" id="Fill-255" sketch:type="MSShapeGroup"></path>
            <path d="M403.22,19.359 L412.526,19.359 L412.526,37.017 L403.22,37.017 L403.22,19.359 Z" id="Fill-256" sketch:type="MSShapeGroup"></path>
            <path d="M403.221,0.045 L412.527,0.045 L412.527,17.702 L403.221,17.702 L403.221,0.045 Z" id="Fill-257" sketch:type="MSShapeGroup"></path>
            <path d="M383.908,19.359 L401.566,19.359 L401.566,28.665 L383.908,28.665 L383.908,19.359 Z" id="Fill-258" sketch:type="MSShapeGroup"></path>
            <path d="M414.183,19.359 L423.49,19.359 L423.49,28.665 L414.183,28.665 L414.183,19.359 Z" id="Fill-259" sketch:type="MSShapeGroup"></path>
            <path d="M403.221,38.673 L412.527,38.673 L412.527,47.979 L403.221,47.979 L403.221,38.673 Z" id="Fill-260" sketch:type="MSShapeGroup"></path>
            <path d="M383.907,0.045 L393.214,0.045 L393.214,17.702 L383.907,17.702 L383.907,0.045 Z" id="Fill-261" sketch:type="MSShapeGroup"></path>
        </g>
    </g>
</svg>