<?xml version="1.0" encoding="UTF-8" standalone="no"?>
<svg width="69px" height="48px" viewBox="0 0 69 48" version="1.1" xmlns="http://www.w3.org/2000/svg" xmlns:xlink="http://www.w3.org/1999/xlink" xmlns:sketch="http://www.bohemiancoding.com/sketch/ns">
    <!-- Generator: Sketch 3.3.2 (12043) - http://www.bohemiancoding.com/sketch -->
    <title>Slice 23</title>
    <desc>Created with Sketch.</desc>
    <defs></defs>
    <g id="Page-1" stroke="none" stroke-width="1" fill="none" fill-rule="evenodd" sketch:type="MSPage">
        <g id="Imported-Layers" sketch:type="MSLayerGroup" transform="translate(-9.000000, -128.000000)" fill="#F9E93C">
            <path d="M9.926,158.335 L19.233,158.335 L19.233,175.993 L9.926,175.993 L9.926,158.335 Z" id="Fill-262" sketch:type="MSShapeGroup"></path>
            <path d="M9.925,147.352 L19.232,147.352 L19.232,156.658 L9.925,156.658 L9.925,147.352 Z" id="Fill-263" sketch:type="MSShapeGroup"></path>
            <path d="M38.549,145.696 C38.362,136.022 30.559,128.219 20.883,128.03 L20.883,137.347 C25.415,137.529 29.051,141.164 29.233,145.696 L38.549,145.696" id="Fill-264" sketch:type="MSShapeGroup"></path>
            <path d="M20.888,147.352 L38.545,147.352 L38.545,156.658 L20.888,156.658 L20.888,147.352 Z" id="Fill-265" sketch:type="MSShapeGroup"></path>
            <path d="M9.926,128.07 L19.233,128.07 L19.233,137.377 L9.926,137.377 L9.926,128.07 Z" id="Fill-266" sketch:type="MSShapeGroup"></path>
            <path d="M20.888,166.686 L38.545,166.686 L38.545,175.993 L20.888,175.993 L20.888,166.686 Z" id="Fill-267" sketch:type="MSShapeGroup"></path>
            <path d="M49.378,128.034 L58.684,128.034 L58.684,145.692 L49.378,145.692 L49.378,128.034 Z" id="Fill-268" sketch:type="MSShapeGroup"></path>
            <path d="M49.377,147.347 L58.685,147.347 L58.685,156.654 L49.377,156.654 L49.377,147.347 Z" id="Fill-269" sketch:type="MSShapeGroup"></path>
            <path d="M78.001,158.31 C77.814,167.984 70.009,175.788 60.335,175.976 L60.335,166.659 C64.867,166.477 68.502,162.842 68.684,158.31 L78.001,158.31" id="Fill-270" sketch:type="MSShapeGroup"></path>
            <path d="M60.339,147.347 L77.997,147.347 L77.997,156.654 L60.339,156.654 L60.339,147.347 Z" id="Fill-271" sketch:type="MSShapeGroup"></path>
            <path d="M49.373,166.65 L58.68,166.65 L58.68,175.956 L49.373,175.956 L49.373,166.65 Z" id="Fill-272" sketch:type="MSShapeGroup"></path>
            <path d="M60.339,128.034 L77.997,128.034 L77.997,137.34 L60.339,137.34 L60.339,128.034 Z" id="Fill-273" sketch:type="MSShapeGroup"></path>
        </g>
    </g>
</svg>