<?xml version="1.0" encoding="UTF-8" standalone="no"?>
<svg width="76px" height="48px" viewBox="0 0 76 48" version="1.1" xmlns="http://www.w3.org/2000/svg" xmlns:xlink="http://www.w3.org/1999/xlink" xmlns:sketch="http://www.bohemiancoding.com/sketch/ns">
    <!-- Generator: Sketch 3.3.2 (12043) - http://www.bohemiancoding.com/sketch -->
    <title>Slice 24</title>
    <desc>Created with Sketch.</desc>
    <defs></defs>
    <g id="Page-1" stroke="none" stroke-width="1" fill="none" fill-rule="evenodd" sketch:type="MSPage">
        <g id="Imported-Layers" sketch:type="MSLayerGroup" transform="translate(-121.000000, -128.000000)" fill="#F9E93C">
            <path d="M121.611,158.335 L130.917,158.335 L130.917,175.993 L121.611,175.993 L121.611,158.335 Z" id="Fill-274" sketch:type="MSShapeGroup"></path>
            <path d="M121.61,147.352 L130.916,147.352 L130.916,156.658 L121.61,156.658 L121.61,147.352 Z" id="Fill-275" sketch:type="MSShapeGroup"></path>
            <path d="M150.232,145.696 C150.048,136.022 142.241,128.219 132.568,128.03 L132.568,137.347 C137.1,137.529 140.734,141.164 140.917,145.696 L150.232,145.696" id="Fill-276" sketch:type="MSShapeGroup"></path>
            <path d="M132.571,147.352 L150.228,147.352 L150.228,156.658 L132.571,156.658 L132.571,147.352 Z" id="Fill-277" sketch:type="MSShapeGroup"></path>
            <path d="M121.61,128.07 L130.916,128.07 L130.916,137.377 L121.61,137.377 L121.61,128.07 Z" id="Fill-278" sketch:type="MSShapeGroup"></path>
            <path d="M132.571,166.686 L150.228,166.686 L150.228,175.993 L132.571,175.993 L132.571,166.686 Z" id="Fill-279" sketch:type="MSShapeGroup"></path>
            <path d="M159.481,145.707 C159.668,136.032 167.471,128.229 177.147,128.041 L177.147,137.356 C172.613,137.54 168.979,141.173 168.795,145.707 L159.481,145.707" id="Fill-280" sketch:type="MSShapeGroup"></path>
            <path d="M159.485,147.341 L177.142,147.341 L177.142,156.647 L159.485,156.647 L159.485,147.341 Z" id="Fill-281" sketch:type="MSShapeGroup"></path>
            <path d="M159.481,158.304 C159.668,167.979 167.471,175.782 177.147,175.97 L177.147,166.653 C172.613,166.471 168.979,162.836 168.795,158.304 L159.481,158.304" id="Fill-282" sketch:type="MSShapeGroup"></path>
            <path d="M196.467,158.304 C196.281,167.979 188.476,175.782 178.802,175.97 L178.802,166.653 C183.336,166.471 186.97,162.836 187.151,158.304 L196.467,158.304" id="Fill-283" sketch:type="MSShapeGroup"></path>
            <path d="M178.808,147.341 L196.463,147.341 L196.463,156.647 L178.808,156.647 L178.808,147.341 Z" id="Fill-284" sketch:type="MSShapeGroup"></path>
            <path d="M178.802,128.059 L196.46,128.059 L196.46,137.365 L178.802,137.365 L178.802,128.059 Z" id="Fill-285" sketch:type="MSShapeGroup"></path>
        </g>
    </g>
</svg>