<?xml version="1.0" encoding="UTF-8" standalone="no"?>
<svg width="78px" height="48px" viewBox="0 0 78 48" version="1.1" xmlns="http://www.w3.org/2000/svg" xmlns:xlink="http://www.w3.org/1999/xlink" xmlns:sketch="http://www.bohemiancoding.com/sketch/ns">
    <!-- Generator: Sketch 3.3.2 (12043) - http://www.bohemiancoding.com/sketch -->
    <title>Slice 35</title>
    <desc>Created with Sketch.</desc>
    <defs></defs>
    <g id="Page-1" stroke="none" stroke-width="1" fill="none" fill-rule="evenodd" sketch:type="MSPage">
        <g id="Imported-Layers" sketch:type="MSLayerGroup" transform="translate(-595.000000, -512.000000)" fill="#F9E93C">
            <path d="M595.346,542.34 L604.652,542.34 L604.652,559.998 L595.346,559.998 L595.346,542.34 Z" id="Fill-286" sketch:type="MSShapeGroup"></path>
            <path d="M595.345,531.356 L604.651,531.356 L604.651,540.663 L595.345,540.663 L595.345,531.356 Z" id="Fill-287" sketch:type="MSShapeGroup"></path>
            <path d="M623.97,529.701 C623.782,520.027 615.979,512.223 606.304,512.036 L606.304,521.352 C610.837,521.534 614.47,525.169 614.653,529.701 L623.97,529.701" id="Fill-288" sketch:type="MSShapeGroup"></path>
            <path d="M606.308,531.356 L623.967,531.356 L623.967,540.663 L606.308,540.663 L606.308,531.356 Z" id="Fill-289" sketch:type="MSShapeGroup"></path>
            <path d="M595.346,512.074 L604.652,512.074 L604.652,521.381 L595.346,521.381 L595.346,512.074 Z" id="Fill-290" sketch:type="MSShapeGroup"></path>
            <path d="M606.308,550.691 L623.967,550.691 L623.967,559.998 L606.308,559.998 L606.308,550.691 Z" id="Fill-291" sketch:type="MSShapeGroup"></path>
            <path d="M651.944,512.043 L661.25,512.043 L661.25,529.701 L651.944,529.701 L651.944,512.043 Z" id="Fill-292" sketch:type="MSShapeGroup"></path>
            <path d="M651.944,542.319 L661.25,542.319 L661.25,559.976 L651.944,559.976 L651.944,542.319 Z" id="Fill-293" sketch:type="MSShapeGroup"></path>
            <path d="M632.631,512.042 L650.289,512.042 L650.289,521.349 L632.631,521.349 L632.631,512.042 Z" id="Fill-294" sketch:type="MSShapeGroup"></path>
            <path d="M651.944,531.356 L661.25,531.356 L661.25,540.663 L651.944,540.663 L651.944,531.356 Z" id="Fill-295" sketch:type="MSShapeGroup"></path>
            <path d="M640.983,531.356 L650.289,531.356 L650.289,540.663 L640.983,540.663 L640.983,531.356 Z" id="Fill-296" sketch:type="MSShapeGroup"></path>
            <path d="M662.906,531.356 L672.213,531.356 L672.213,540.663 L662.906,540.663 L662.906,531.356 Z" id="Fill-297" sketch:type="MSShapeGroup"></path>
        </g>
    </g>
</svg>