<?xml version="1.0" encoding="UTF-8" standalone="no"?>
<svg width="75px" height="49px" viewBox="0 0 75 49" version="1.1" xmlns="http://www.w3.org/2000/svg" xmlns:xlink="http://www.w3.org/1999/xlink" xmlns:sketch="http://www.bohemiancoding.com/sketch/ns">
    <!-- Generator: Sketch 3.3.2 (12043) - http://www.bohemiancoding.com/sketch -->
    <title>Slice 7</title>
    <desc>Created with Sketch.</desc>
    <defs></defs>
    <g id="Page-1" stroke="none" stroke-width="1" fill="none" fill-rule="evenodd" sketch:type="MSPage">
        <g id="Imported-Layers" sketch:type="MSLayerGroup" transform="translate(-535.000000, -306.000000)"></g>
        <g id="Imported-Layers" sketch:type="MSLayerGroup" fill="#F9E93C">
            <path d="M0.06,30.803 L9.307,30.803 L9.307,48.46 L0.06,48.46 L0.06,30.803 Z" id="Fill-1" sketch:type="MSShapeGroup"></path>
            <path d="M0.06,19.819 L9.307,19.819 L9.307,29.126 L0.06,29.126 L0.06,19.819 Z" id="Fill-2" sketch:type="MSShapeGroup"></path>
            <path d="M28.624,18.164 C28.438,8.49 20.634,0.686 10.958,0.498 L10.958,9.814 C15.491,9.997 19.126,13.632 19.309,18.164 L28.624,18.164" id="Fill-3" sketch:type="MSShapeGroup"></path>
            <path d="M10.963,19.819 L28.62,19.819 L28.62,29.126 L10.963,29.126 L10.963,19.819 Z" id="Fill-4" sketch:type="MSShapeGroup"></path>
            <path d="M0.06,0.537 L9.307,0.537 L9.307,9.844 L0.06,9.844 L0.06,0.537 Z" id="Fill-5" sketch:type="MSShapeGroup"></path>
            <path d="M10.963,39.154 L28.62,39.154 L28.62,48.46 L10.963,48.46 L10.963,39.154 Z" id="Fill-6" sketch:type="MSShapeGroup"></path>
            <path d="M37.875,18.163 C38.062,8.49 45.866,0.686 55.542,0.498 L55.542,9.814 C51.009,9.996 47.374,13.632 47.192,18.163 L37.875,18.163" id="Fill-7" sketch:type="MSShapeGroup"></path>
            <path d="M37.878,19.819 L55.536,19.819 L55.536,29.125 L37.878,29.125 L37.878,19.819 Z" id="Fill-8" sketch:type="MSShapeGroup"></path>
            <path d="M37.875,30.781 C38.062,40.456 45.866,48.258 55.541,48.448 L55.541,39.13 C51.009,38.948 47.373,35.314 47.19,30.781 L37.875,30.781" id="Fill-9" sketch:type="MSShapeGroup"></path>
            <path d="M74.854,30.781 C74.665,40.456 66.862,48.258 57.187,48.448 L57.187,39.13 C61.721,38.948 65.355,35.314 65.537,30.781 L74.854,30.781" id="Fill-10" sketch:type="MSShapeGroup"></path>
            <path d="M57.201,19.818 L74.857,19.818 L74.857,29.124 L57.201,29.124 L57.201,19.818 Z" id="Fill-11" sketch:type="MSShapeGroup"></path>
            <path d="M74.864,18.163 C74.676,8.49 66.872,0.686 57.197,0.498 L57.197,9.814 C61.73,9.996 65.364,13.632 65.548,18.163 L74.864,18.163" id="Fill-12" sketch:type="MSShapeGroup"></path>
        </g>
    </g>
</svg>