<?xml version="1.0" encoding="UTF-8" standalone="no"?>
<svg width="76px" height="48px" viewBox="0 0 76 48" version="1.1" xmlns="http://www.w3.org/2000/svg" xmlns:xlink="http://www.w3.org/1999/xlink" xmlns:sketch="http://www.bohemiancoding.com/sketch/ns">
    <!-- Generator: Sketch 3.3.2 (12043) - http://www.bohemiancoding.com/sketch -->
    <title>Slice 26</title>
    <desc>Created with Sketch.</desc>
    <defs></defs>
    <g id="Page-1" stroke="none" stroke-width="1" fill="none" fill-rule="evenodd" sketch:type="MSPage">
        <g id="Imported-Layers" sketch:type="MSLayerGroup" transform="translate(-9.000000, -256.000000)" fill="#F9E93C">
            <path d="M9.926,286.335 L19.233,286.335 L19.233,303.993 L9.926,303.993 L9.926,286.335 Z" id="Fill-310" sketch:type="MSShapeGroup"></path>
            <path d="M9.925,275.351 L19.232,275.351 L19.232,284.658 L9.925,284.658 L9.925,275.351 Z" id="Fill-311" sketch:type="MSShapeGroup"></path>
            <path d="M38.549,273.696 C38.362,264.022 30.559,256.218 20.883,256.031 L20.883,265.347 C25.415,265.529 29.051,269.164 29.233,273.696 L38.549,273.696" id="Fill-312" sketch:type="MSShapeGroup"></path>
            <path d="M20.888,275.351 L38.545,275.351 L38.545,284.658 L20.888,284.658 L20.888,275.351 Z" id="Fill-313" sketch:type="MSShapeGroup"></path>
            <path d="M9.926,256.069 L19.233,256.069 L19.233,265.376 L9.926,265.376 L9.926,256.069 Z" id="Fill-314" sketch:type="MSShapeGroup"></path>
            <path d="M20.888,294.686 L38.545,294.686 L38.545,303.993 L20.888,303.993 L20.888,294.686 Z" id="Fill-315" sketch:type="MSShapeGroup"></path>
            <path d="M85.835,286.314 C85.648,295.988 77.843,303.792 68.168,303.98 L68.168,294.663 C72.701,294.481 76.335,290.845 76.518,286.314 L85.835,286.314" id="Fill-316" sketch:type="MSShapeGroup"></path>
            <path d="M68.173,275.372 L85.83,275.372 L85.83,284.678 L68.173,284.678 L68.173,275.372 Z" id="Fill-317" sketch:type="MSShapeGroup"></path>
            <path d="M85.834,273.716 C85.647,264.041 77.843,256.238 68.169,256.05 L68.169,265.367 C72.7,265.549 76.335,269.184 76.518,273.716 L85.834,273.716" id="Fill-318" sketch:type="MSShapeGroup"></path>
            <path d="M48.846,273.716 C49.033,264.041 56.838,256.238 66.512,256.05 L66.512,265.367 C61.98,265.549 58.345,269.184 58.163,273.716 L48.846,273.716" id="Fill-319" sketch:type="MSShapeGroup"></path>
            <path d="M48.85,275.372 L66.508,275.372 L66.508,284.678 L48.85,284.678 L48.85,275.372 Z" id="Fill-320" sketch:type="MSShapeGroup"></path>
            <path d="M48.855,294.654 L66.512,294.654 L66.512,303.961 L48.855,303.961 L48.855,294.654 Z" id="Fill-321" sketch:type="MSShapeGroup"></path>
        </g>
    </g>
</svg>