<?xml version="1.0" encoding="UTF-8" standalone="no"?>
<svg width="76px" height="48px" viewBox="0 0 76 48" version="1.1" xmlns="http://www.w3.org/2000/svg" xmlns:xlink="http://www.w3.org/1999/xlink" xmlns:sketch="http://www.bohemiancoding.com/sketch/ns">
    <!-- Generator: Sketch 3.3.2 (12043) - http://www.bohemiancoding.com/sketch -->
    <title>Slice 27</title>
    <desc>Created with Sketch.</desc>
    <defs></defs>
    <g id="Page-1" stroke="none" stroke-width="1" fill="none" fill-rule="evenodd" sketch:type="MSPage">
        <g id="Imported-Layers" sketch:type="MSLayerGroup" transform="translate(-121.000000, -256.000000)" fill="#F9E93C">
            <path d="M121.61,294.686 L130.916,294.686 L130.916,303.993 L121.61,303.993 L121.61,294.686 Z" id="Fill-322" sketch:type="MSShapeGroup"></path>
            <path d="M150.239,273.695 C150.05,264.021 142.246,256.218 132.572,256.029 L132.572,265.346 C137.104,265.528 140.74,269.164 140.922,273.695 L150.239,273.695" id="Fill-323" sketch:type="MSShapeGroup"></path>
            <path d="M132.576,275.351 L150.232,275.351 L150.232,284.657 L132.576,284.657 L132.576,275.351 Z" id="Fill-324" sketch:type="MSShapeGroup"></path>
            <path d="M132.572,303.993 C142.246,303.806 150.05,296.001 150.239,286.327 L140.921,286.327 C140.739,290.859 137.104,294.494 132.572,294.677 L132.572,303.993" id="Fill-325" sketch:type="MSShapeGroup"></path>
            <path d="M121.61,256.069 L130.916,256.069 L130.916,265.376 L121.61,265.376 L121.61,256.069 Z" id="Fill-326" sketch:type="MSShapeGroup"></path>
            <path d="M159.484,273.694 C159.67,264.019 167.475,256.216 177.15,256.028 L177.15,265.344 C172.617,265.527 168.983,269.162 168.799,273.694 L159.484,273.694" id="Fill-327" sketch:type="MSShapeGroup"></path>
            <path d="M159.484,286.315 C159.669,295.989 167.475,303.794 177.15,303.981 L177.15,294.664 C172.617,294.482 168.982,290.847 168.799,286.315 L159.484,286.315" id="Fill-328" sketch:type="MSShapeGroup"></path>
            <path d="M196.473,286.311 C196.286,295.986 188.481,303.789 178.808,303.977 L178.808,294.661 C183.339,294.479 186.974,290.843 187.156,286.311 L196.473,286.311" id="Fill-329" sketch:type="MSShapeGroup"></path>
            <path d="M196.473,273.694 C196.286,264.019 188.481,256.216 178.808,256.028 L178.808,265.344 C183.339,265.527 186.974,269.162 187.156,273.694 L196.473,273.694" id="Fill-330" sketch:type="MSShapeGroup"></path>
            <path d="M159.484,275.353 L168.79,275.353 L168.79,284.659 L159.484,284.659 L159.484,275.353 Z" id="Fill-331" sketch:type="MSShapeGroup"></path>
            <path d="M187.164,275.348 L196.473,275.348 L196.473,284.655 L187.164,284.655 L187.164,275.348 Z" id="Fill-332" sketch:type="MSShapeGroup"></path>
        </g>
    </g>
</svg>