<?xml version="1.0" encoding="UTF-8" standalone="no"?>
<svg width="58px" height="48px" viewBox="0 0 58 48" version="1.1" xmlns="http://www.w3.org/2000/svg" xmlns:xlink="http://www.w3.org/1999/xlink" xmlns:sketch="http://www.bohemiancoding.com/sketch/ns">
    <!-- Generator: Sketch 3.3.2 (12043) - http://www.bohemiancoding.com/sketch -->
    <title>Slice 34</title>
    <desc>Created with Sketch.</desc>
    <defs></defs>
    <g id="Page-1" stroke="none" stroke-width="1" fill="none" fill-rule="evenodd" sketch:type="MSPage">
        <g id="Imported-Layers" sketch:type="MSLayerGroup" transform="translate(-511.000000, -512.000000)" fill="#F9E93C">
            <path d="M511.393,550.686 L520.7,550.686 L520.7,559.993 L511.393,559.993 L511.393,550.686 Z" id="Fill-490" sketch:type="MSShapeGroup"></path>
            <path d="M540.022,529.695 C539.835,520.021 532.031,512.217 522.356,512.03 L522.356,521.346 C526.889,521.529 530.523,525.163 530.706,529.695 L540.022,529.695" id="Fill-491" sketch:type="MSShapeGroup"></path>
            <path d="M522.36,531.351 L540.019,531.351 L540.019,540.657 L522.36,540.657 L522.36,531.351 Z" id="Fill-492" sketch:type="MSShapeGroup"></path>
            <path d="M522.357,559.993 C532.031,559.806 539.836,552 540.023,542.326 L530.706,542.326 C530.524,546.86 526.889,550.495 522.357,550.677 L522.357,559.993" id="Fill-493" sketch:type="MSShapeGroup"></path>
            <path d="M511.393,512.069 L520.7,512.069 L520.7,521.376 L511.393,521.376 L511.393,512.069 Z" id="Fill-494" sketch:type="MSShapeGroup"></path>
            <path d="M558.806,531.355 L568.113,531.355 L568.113,549.014 L558.806,549.014 L558.806,531.355 Z" id="Fill-495" sketch:type="MSShapeGroup"></path>
            <path d="M558.806,512.042 L568.113,512.042 L568.113,529.7 L558.806,529.7 L558.806,512.042 Z" id="Fill-496" sketch:type="MSShapeGroup"></path>
            <path d="M547.844,512.042 L557.152,512.042 L557.152,521.348 L547.844,521.348 L547.844,512.042 Z" id="Fill-497" sketch:type="MSShapeGroup"></path>
            <path d="M558.805,550.659 L568.113,550.659 L568.113,559.965 L558.805,559.965 L558.805,550.659 Z" id="Fill-498" sketch:type="MSShapeGroup"></path>
        </g>
    </g>
</svg>