<?xml version="1.0" encoding="UTF-8" standalone="no"?>
<svg width="68px" height="49px" viewBox="0 0 68 49" version="1.1" xmlns="http://www.w3.org/2000/svg" xmlns:xlink="http://www.w3.org/1999/xlink" xmlns:sketch="http://www.bohemiancoding.com/sketch/ns">
    <!-- Generator: Sketch 3.3.2 (12043) - http://www.bohemiancoding.com/sketch -->
    <title>Slice 39</title>
    <desc>Created with Sketch.</desc>
    <defs></defs>
    <g id="Page-1" stroke="none" stroke-width="1" fill="none" fill-rule="evenodd" sketch:type="MSPage">
        <g id="Imported-Layers" sketch:type="MSLayerGroup" transform="translate(-843.000000, -138.000000)" fill="#F9E93C">
            <path d="M843.736,176.986 L853.043,176.986 L853.043,186.293 L843.736,186.293 L843.736,176.986 Z" id="Fill-333" sketch:type="MSShapeGroup"></path>
            <path d="M872.365,155.995 C872.178,146.321 864.373,138.517 854.699,138.329 L854.699,147.646 C859.231,147.828 862.865,151.463 863.048,155.995 L872.365,155.995" id="Fill-334" sketch:type="MSShapeGroup"></path>
            <path d="M854.703,157.651 L872.36,157.651 L872.36,166.958 L854.703,166.958 L854.703,157.651 Z" id="Fill-335" sketch:type="MSShapeGroup"></path>
            <path d="M854.699,186.293 C864.373,186.106 872.178,178.301 872.365,168.626 L863.048,168.626 C862.865,173.159 859.231,176.794 854.699,176.977 L854.699,186.293" id="Fill-336" sketch:type="MSShapeGroup"></path>
            <path d="M843.736,138.369 L853.043,138.369 L853.043,147.676 L843.736,147.676 L843.736,138.369 Z" id="Fill-337" sketch:type="MSShapeGroup"></path>
            <path d="M881.606,168.628 L890.912,168.628 L890.912,186.285 L881.606,186.285 L881.606,168.628 Z" id="Fill-338" sketch:type="MSShapeGroup"></path>
            <path d="M881.605,157.644 L890.911,157.644 L890.911,166.951 L881.605,166.951 L881.605,157.644 Z" id="Fill-339" sketch:type="MSShapeGroup"></path>
            <path d="M910.229,155.989 C910.043,146.315 902.238,138.51 892.563,138.323 L892.563,147.639 C897.096,147.822 900.731,151.456 900.913,155.989 L910.229,155.989" id="Fill-340" sketch:type="MSShapeGroup"></path>
            <path d="M892.567,157.644 L910.225,157.644 L910.225,166.951 L892.567,166.951 L892.567,157.644 Z" id="Fill-341" sketch:type="MSShapeGroup"></path>
            <path d="M881.605,138.362 L890.912,138.362 L890.912,147.669 L881.605,147.669 L881.605,138.362 Z" id="Fill-342" sketch:type="MSShapeGroup"></path>
            <path d="M892.567,176.978 L910.225,176.978 L910.225,186.285 L892.567,186.285 L892.567,176.978 Z" id="Fill-343" sketch:type="MSShapeGroup"></path>
        </g>
    </g>
</svg>