<?xml version="1.0" encoding="UTF-8" standalone="no"?>
<svg width="68px" height="48px" viewBox="0 0 68 48" version="1.1" xmlns="http://www.w3.org/2000/svg" xmlns:xlink="http://www.w3.org/1999/xlink" xmlns:sketch="http://www.bohemiancoding.com/sketch/ns">
    <!-- Generator: Sketch 3.3.2 (12043) - http://www.bohemiancoding.com/sketch -->
    <title>Slice 28</title>
    <desc>Created with Sketch.</desc>
    <defs></defs>
    <g id="Page-1" stroke="none" stroke-width="1" fill="none" fill-rule="evenodd" sketch:type="MSPage">
        <g id="Imported-Layers" sketch:type="MSLayerGroup" transform="translate(-9.000000, -384.000000)" fill="#F9E93C">
            <path d="M9.926,422.687 L19.233,422.687 L19.233,431.993 L9.926,431.993 L9.926,422.687 Z" id="Fill-344" sketch:type="MSShapeGroup"></path>
            <path d="M38.554,401.695 C38.367,392.021 30.562,384.217 20.888,384.03 L20.888,393.347 C25.421,393.529 29.055,397.163 29.237,401.695 L38.554,401.695" id="Fill-345" sketch:type="MSShapeGroup"></path>
            <path d="M20.892,403.352 L38.549,403.352 L38.549,412.658 L20.892,412.658 L20.892,403.352 Z" id="Fill-346" sketch:type="MSShapeGroup"></path>
            <path d="M20.888,431.993 C30.562,431.806 38.366,424.002 38.554,414.328 L29.237,414.328 C29.054,418.859 25.421,422.494 20.888,422.678 L20.888,431.993" id="Fill-347" sketch:type="MSShapeGroup"></path>
            <path d="M9.926,384.07 L19.233,384.07 L19.233,393.376 L9.926,393.376 L9.926,384.07 Z" id="Fill-348" sketch:type="MSShapeGroup"></path>
            <path d="M47.804,422.681 L57.112,422.681 L57.112,431.987 L47.804,431.987 L47.804,422.681 Z" id="Fill-349" sketch:type="MSShapeGroup"></path>
            <path d="M76.432,401.688 C76.246,392.014 68.44,384.21 58.767,384.022 L58.767,393.339 C63.299,393.521 66.934,397.155 67.116,401.688 L76.432,401.688" id="Fill-350" sketch:type="MSShapeGroup"></path>
            <path d="M58.771,403.345 L76.428,403.345 L76.428,412.651 L58.771,412.651 L58.771,403.345 Z" id="Fill-351" sketch:type="MSShapeGroup"></path>
            <path d="M58.767,431.987 C68.441,431.8 76.246,423.996 76.432,414.321 L67.116,414.321 C66.935,418.853 63.3,422.488 58.767,422.671 L58.767,431.987" id="Fill-352" sketch:type="MSShapeGroup"></path>
            <path d="M47.804,384.063 L57.112,384.063 L57.112,393.369 L47.804,393.369 L47.804,384.063 Z" id="Fill-353" sketch:type="MSShapeGroup"></path>
        </g>
    </g>
</svg>