<?xml version="1.0" encoding="UTF-8" standalone="no"?>
<svg width="79px" height="48px" viewBox="0 0 79 48" version="1.1" xmlns="http://www.w3.org/2000/svg" xmlns:xlink="http://www.w3.org/1999/xlink" xmlns:sketch="http://www.bohemiancoding.com/sketch/ns">
    <!-- Generator: Sketch 3.3.2 (12043) - http://www.bohemiancoding.com/sketch -->
    <title>Slice 6</title>
    <desc>Created with Sketch.</desc>
    <defs></defs>
    <g id="Page-1" stroke="none" stroke-width="1" fill="none" fill-rule="evenodd" sketch:type="MSPage">
        <g id="Imported-Layers" sketch:type="MSLayerGroup" transform="translate(-121.000000, -384.000000)" fill="#F9E93C">
            <path d="M121.61,422.686 L130.916,422.686 L130.916,431.993 L121.61,431.993 L121.61,422.686 Z" id="Fill-354" sketch:type="MSShapeGroup"></path>
            <path d="M150.239,401.695 C150.05,392.021 142.246,384.217 132.572,384.029 L132.572,393.346 C137.104,393.528 140.74,397.163 140.922,401.695 L150.239,401.695" id="Fill-355" sketch:type="MSShapeGroup"></path>
            <path d="M132.576,403.351 L150.232,403.351 L150.232,412.658 L132.576,412.658 L132.576,403.351 Z" id="Fill-356" sketch:type="MSShapeGroup"></path>
            <path d="M132.572,431.993 C142.246,431.806 150.05,424.001 150.239,414.326 L140.921,414.326 C140.739,418.859 137.104,422.494 132.572,422.677 L132.572,431.993" id="Fill-357" sketch:type="MSShapeGroup"></path>
            <path d="M121.61,384.069 L130.916,384.069 L130.916,393.376 L121.61,393.376 L121.61,384.069 Z" id="Fill-358" sketch:type="MSShapeGroup"></path>
            <path d="M178.802,403.351 L188.109,403.351 L188.109,421.008 L178.802,421.008 L178.802,403.351 Z" id="Fill-359" sketch:type="MSShapeGroup"></path>
            <path d="M178.802,384.037 L188.111,384.037 L188.111,401.695 L178.802,401.695 L178.802,384.037 Z" id="Fill-360" sketch:type="MSShapeGroup"></path>
            <path d="M159.49,403.351 L177.147,403.351 L177.147,412.658 L159.49,412.658 L159.49,403.351 Z" id="Fill-361" sketch:type="MSShapeGroup"></path>
            <path d="M189.765,403.351 L199.071,403.351 L199.071,412.658 L189.765,412.658 L189.765,403.351 Z" id="Fill-362" sketch:type="MSShapeGroup"></path>
            <path d="M178.802,422.666 L188.111,422.666 L188.111,431.972 L178.802,431.972 L178.802,422.666 Z" id="Fill-363" sketch:type="MSShapeGroup"></path>
            <path d="M159.489,384.037 L168.795,384.037 L168.795,401.695 L159.489,401.695 L159.489,384.037 Z" id="Fill-364" sketch:type="MSShapeGroup"></path>
        </g>
    </g>
</svg>