<?xml version="1.0" encoding="UTF-8" standalone="no"?>
<svg width="68px" height="49px" viewBox="0 0 68 49" version="1.1" xmlns="http://www.w3.org/2000/svg" xmlns:xlink="http://www.w3.org/1999/xlink" xmlns:sketch="http://www.bohemiancoding.com/sketch/ns">
    <!-- Generator: Sketch 3.3.2 (12043) - http://www.bohemiancoding.com/sketch -->
    <title>Slice 38</title>
    <desc>Created with Sketch.</desc>
    <defs></defs>
    <g id="Page-1" stroke="none" stroke-width="1" fill="none" fill-rule="evenodd" sketch:type="MSPage">
        <g id="Imported-Layers" sketch:type="MSLayerGroup" transform="translate(-713.000000, -378.000000)" fill="#F9E93C">
            <path d="M713.205,416.966 L722.511,416.966 L722.511,426.273 L713.205,426.273 L713.205,416.966 Z" id="Fill-499" sketch:type="MSShapeGroup"></path>
            <path d="M741.834,395.975 C741.646,386.301 733.842,378.497 724.167,378.309 L724.167,387.626 C728.7,387.808 732.334,391.442 732.517,395.975 L741.834,395.975" id="Fill-500" sketch:type="MSShapeGroup"></path>
            <path d="M724.172,397.63 L741.829,397.63 L741.829,406.937 L724.172,406.937 L724.172,397.63 Z" id="Fill-501" sketch:type="MSShapeGroup"></path>
            <path d="M724.167,426.273 C733.842,426.086 741.646,418.28 741.834,408.607 L732.516,408.607 C732.334,413.139 728.7,416.774 724.167,416.957 L724.167,426.273" id="Fill-502" sketch:type="MSShapeGroup"></path>
            <path d="M713.205,378.35 L722.511,378.35 L722.511,387.656 L713.205,387.656 L713.205,378.35 Z" id="Fill-503" sketch:type="MSShapeGroup"></path>
            <path d="M751.613,378.313 L760.92,378.313 L760.92,395.97 L751.613,395.97 L751.613,378.313 Z" id="Fill-504" sketch:type="MSShapeGroup"></path>
            <path d="M751.613,397.626 L760.921,397.626 L760.921,406.932 L751.613,406.932 L751.613,397.626 Z" id="Fill-505" sketch:type="MSShapeGroup"></path>
            <path d="M780.237,408.59 C780.051,418.264 772.246,426.068 762.572,426.256 L762.572,416.939 C767.103,416.756 770.739,413.122 770.921,408.59 L780.237,408.59" id="Fill-506" sketch:type="MSShapeGroup"></path>
            <path d="M762.576,397.626 L780.234,397.626 L780.234,406.932 L762.576,406.932 L762.576,397.626 Z" id="Fill-507" sketch:type="MSShapeGroup"></path>
            <path d="M751.609,416.93 L760.916,416.93 L760.916,426.236 L751.609,426.236 L751.609,416.93 Z" id="Fill-508" sketch:type="MSShapeGroup"></path>
            <path d="M762.575,378.313 L780.233,378.313 L780.233,387.62 L762.575,387.62 L762.575,378.313 Z" id="Fill-509" sketch:type="MSShapeGroup"></path>
        </g>
    </g>
</svg>