<?xml version="1.0" encoding="UTF-8" standalone="no"?>
<svg width="76px" height="49px" viewBox="0 0 76 49" version="1.1" xmlns="http://www.w3.org/2000/svg" xmlns:xlink="http://www.w3.org/1999/xlink" xmlns:sketch="http://www.bohemiancoding.com/sketch/ns">
    <!-- Generator: Sketch 3.3.2 (12043) - http://www.bohemiancoding.com/sketch -->
    <title>Slice 37</title>
    <desc>Created with Sketch.</desc>
    <defs></defs>
    <g id="Page-1" stroke="none" stroke-width="1" fill="none" fill-rule="evenodd" sketch:type="MSPage">
        <g id="Imported-Layers" sketch:type="MSLayerGroup" transform="translate(-714.000000, -725.000000)" fill="#F9E93C">
            <path d="M714.4,763.698 L723.707,763.698 L723.707,773.005 L714.4,773.005 L714.4,763.698 Z" id="Fill-365" sketch:type="MSShapeGroup"></path>
            <path d="M743.029,742.707 C742.842,733.033 735.037,725.229 725.363,725.041 L725.363,734.358 C729.895,734.54 733.53,738.174 733.713,742.707 L743.029,742.707" id="Fill-366" sketch:type="MSShapeGroup"></path>
            <path d="M725.367,744.363 L743.024,744.363 L743.024,753.67 L725.367,753.67 L725.367,744.363 Z" id="Fill-367" sketch:type="MSShapeGroup"></path>
            <path d="M725.363,773.005 C735.037,772.818 742.842,765.012 743.029,755.339 L733.712,755.339 C733.529,759.871 729.895,763.506 725.363,763.689 L725.363,773.005" id="Fill-368" sketch:type="MSShapeGroup"></path>
            <path d="M714.4,725.082 L723.707,725.082 L723.707,734.388 L714.4,734.388 L714.4,725.082 Z" id="Fill-369" sketch:type="MSShapeGroup"></path>
            <path d="M752.275,742.707 C752.462,733.033 760.266,725.229 769.942,725.041 L769.942,734.358 C765.409,734.54 761.774,738.174 761.591,742.707 L752.275,742.707" id="Fill-370" sketch:type="MSShapeGroup"></path>
            <path d="M752.279,744.343 L769.937,744.343 L769.937,753.649 L752.279,753.649 L752.279,744.343 Z" id="Fill-371" sketch:type="MSShapeGroup"></path>
            <path d="M752.276,755.304 C752.461,764.979 760.266,772.783 769.941,772.971 L769.941,763.653 C765.409,763.471 761.772,759.837 761.59,755.304 L752.276,755.304" id="Fill-372" sketch:type="MSShapeGroup"></path>
            <path d="M789.263,755.304 C789.076,764.979 781.271,772.783 771.596,772.971 L771.596,763.653 C776.13,763.471 779.764,759.837 779.946,755.304 L789.263,755.304" id="Fill-373" sketch:type="MSShapeGroup"></path>
            <path d="M771.602,744.343 L789.259,744.343 L789.259,753.649 L771.602,753.649 L771.602,744.343 Z" id="Fill-374" sketch:type="MSShapeGroup"></path>
            <path d="M771.598,725.06 L789.255,725.06 L789.255,734.366 L771.598,734.366 L771.598,725.06 Z" id="Fill-375" sketch:type="MSShapeGroup"></path>
        </g>
    </g>
</svg>