<?xml version="1.0" encoding="UTF-8" standalone="no"?>
<svg width="79px" height="48px" viewBox="0 0 79 48" version="1.1" xmlns="http://www.w3.org/2000/svg" xmlns:xlink="http://www.w3.org/1999/xlink" xmlns:sketch="http://www.bohemiancoding.com/sketch/ns">
    <!-- Generator: Sketch 3.3.2 (12043) - http://www.bohemiancoding.com/sketch -->
    <title>Slice 30</title>
    <desc>Created with Sketch.</desc>
    <defs></defs>
    <g id="Page-1" stroke="none" stroke-width="1" fill="none" fill-rule="evenodd" sketch:type="MSPage">
        <g id="Imported-Layers" sketch:type="MSLayerGroup" transform="translate(-9.000000, -512.000000)" fill="#F9E93C">
            <path d="M9.926,550.686 L19.233,550.686 L19.233,559.993 L9.926,559.993 L9.926,550.686 Z" id="Fill-376" sketch:type="MSShapeGroup"></path>
            <path d="M38.554,529.695 C38.367,520.02 30.562,512.217 20.888,512.028 L20.888,521.345 C25.421,521.528 29.055,525.162 29.237,529.695 L38.554,529.695" id="Fill-377" sketch:type="MSShapeGroup"></path>
            <path d="M20.892,531.35 L38.549,531.35 L38.549,540.657 L20.892,540.657 L20.892,531.35 Z" id="Fill-378" sketch:type="MSShapeGroup"></path>
            <path d="M20.888,559.993 C30.562,559.806 38.366,552.001 38.554,542.327 L29.237,542.327 C29.054,546.859 25.421,550.494 20.888,550.678 L20.888,559.993" id="Fill-379" sketch:type="MSShapeGroup"></path>
            <path d="M9.926,512.069 L19.233,512.069 L19.233,521.375 L9.926,521.375 L9.926,512.069 Z" id="Fill-380" sketch:type="MSShapeGroup"></path>
            <path d="M67.109,512.037 L76.415,512.037 L76.415,529.695 L67.109,529.695 L67.109,512.037 Z" id="Fill-381" sketch:type="MSShapeGroup"></path>
            <path d="M67.109,542.313 L76.415,542.313 L76.415,559.971 L67.109,559.971 L67.109,542.313 Z" id="Fill-382" sketch:type="MSShapeGroup"></path>
            <path d="M47.795,512.037 L65.453,512.037 L65.453,521.344 L47.795,521.344 L47.795,512.037 Z" id="Fill-383" sketch:type="MSShapeGroup"></path>
            <path d="M67.109,531.35 L76.415,531.35 L76.415,540.657 L67.109,540.657 L67.109,531.35 Z" id="Fill-384" sketch:type="MSShapeGroup"></path>
            <path d="M56.146,531.35 L65.453,531.35 L65.453,540.657 L56.146,540.657 L56.146,531.35 Z" id="Fill-385" sketch:type="MSShapeGroup"></path>
            <path d="M78.07,531.35 L87.377,531.35 L87.377,540.657 L78.07,540.657 L78.07,531.35 Z" id="Fill-386" sketch:type="MSShapeGroup"></path>
        </g>
    </g>
</svg>