<?xml version="1.0" encoding="UTF-8" standalone="no"?>
<svg width="76px" height="48px" viewBox="0 0 76 48" version="1.1" xmlns="http://www.w3.org/2000/svg" xmlns:xlink="http://www.w3.org/1999/xlink" xmlns:sketch="http://www.bohemiancoding.com/sketch/ns">
    <!-- Generator: Sketch 3.3.2 (12043) - http://www.bohemiancoding.com/sketch -->
    <title>Slice 31</title>
    <desc>Created with Sketch.</desc>
    <defs></defs>
    <g id="Page-1" stroke="none" stroke-width="1" fill="none" fill-rule="evenodd" sketch:type="MSPage">
        <g id="Imported-Layers" sketch:type="MSLayerGroup" transform="translate(-121.000000, -512.000000)" fill="#F9E93C">
            <path d="M121.61,550.686 L130.916,550.686 L130.916,559.993 L121.61,559.993 L121.61,550.686 Z" id="Fill-387" sketch:type="MSShapeGroup"></path>
            <path d="M150.239,529.695 C150.05,520.021 142.246,512.217 132.572,512.029 L132.572,521.346 C137.104,521.528 140.74,525.162 140.922,529.695 L150.239,529.695" id="Fill-388" sketch:type="MSShapeGroup"></path>
            <path d="M132.576,531.35 L150.232,531.35 L150.232,540.657 L132.576,540.657 L132.576,531.35 Z" id="Fill-389" sketch:type="MSShapeGroup"></path>
            <path d="M132.572,559.993 C142.246,559.806 150.05,552 150.239,542.326 L140.921,542.326 C140.739,546.859 137.104,550.493 132.572,550.677 L132.572,559.993" id="Fill-390" sketch:type="MSShapeGroup"></path>
            <path d="M121.61,512.069 L130.916,512.069 L130.916,521.375 L121.61,521.375 L121.61,512.069 Z" id="Fill-391" sketch:type="MSShapeGroup"></path>
            <path d="M159.481,529.695 C159.668,520.021 167.471,512.217 177.147,512.029 L177.147,521.346 C172.613,521.528 168.979,525.162 168.795,529.695 L159.481,529.695" id="Fill-392" sketch:type="MSShapeGroup"></path>
            <path d="M159.485,531.35 L177.142,531.35 L177.142,540.656 L159.485,540.656 L159.485,531.35 Z" id="Fill-393" sketch:type="MSShapeGroup"></path>
            <path d="M159.481,542.312 C159.667,551.986 167.471,559.79 177.147,559.978 L177.147,550.661 C172.613,550.479 168.979,546.844 168.795,542.312 L159.481,542.312" id="Fill-394" sketch:type="MSShapeGroup"></path>
            <path d="M196.459,542.312 C196.27,551.986 188.468,559.79 178.794,559.978 L178.794,550.661 C183.324,550.479 186.96,546.844 187.144,542.312 L196.459,542.312" id="Fill-395" sketch:type="MSShapeGroup"></path>
            <path d="M178.808,531.35 L196.463,531.35 L196.463,540.656 L178.808,540.656 L178.808,531.35 Z" id="Fill-396" sketch:type="MSShapeGroup"></path>
            <path d="M196.467,529.695 C196.281,520.021 188.476,512.217 178.802,512.029 L178.802,521.346 C183.336,521.528 186.97,525.162 187.152,529.695 L196.467,529.695" id="Fill-397" sketch:type="MSShapeGroup"></path>
        </g>
    </g>
</svg>