<?xml version="1.0" encoding="UTF-8" standalone="no"?>
<svg width="76px" height="48px" viewBox="0 0 76 48" version="1.1" xmlns="http://www.w3.org/2000/svg" xmlns:xlink="http://www.w3.org/1999/xlink" xmlns:sketch="http://www.bohemiancoding.com/sketch/ns">
    <!-- Generator: Sketch 3.3.2 (12043) - http://www.bohemiancoding.com/sketch -->
    <title>Slice 32</title>
    <desc>Created with Sketch.</desc>
    <defs></defs>
    <g id="Page-1" stroke="none" stroke-width="1" fill="none" fill-rule="evenodd" sketch:type="MSPage">
        <g id="Imported-Layers" sketch:type="MSLayerGroup" transform="translate(-233.000000, -512.000000)" fill="#F9E93C">
            <path d="M233.296,550.687 L242.602,550.687 L242.602,559.993 L233.296,559.993 L233.296,550.687 Z" id="Fill-398" sketch:type="MSShapeGroup"></path>
            <path d="M261.925,529.694 C261.737,520.02 253.933,512.217 244.258,512.029 L244.258,521.345 C248.791,521.528 252.425,525.164 252.608,529.694 L261.925,529.694" id="Fill-399" sketch:type="MSShapeGroup"></path>
            <path d="M244.263,531.351 L261.92,531.351 L261.92,540.657 L244.263,540.657 L244.263,531.351 Z" id="Fill-400" sketch:type="MSShapeGroup"></path>
            <path d="M244.258,559.993 C253.933,559.806 261.737,552.002 261.925,542.328 L252.607,542.328 C252.425,546.86 248.791,550.494 244.258,550.678 L244.258,559.993" id="Fill-401" sketch:type="MSShapeGroup"></path>
            <path d="M233.296,512.069 L242.602,512.069 L242.602,521.376 L233.296,521.376 L233.296,512.069 Z" id="Fill-402" sketch:type="MSShapeGroup"></path>
            <path d="M308.163,542.315 C307.975,551.988 300.171,559.792 290.496,559.98 L290.496,550.663 C295.029,550.481 298.663,546.846 298.846,542.315 L308.163,542.315" id="Fill-403" sketch:type="MSShapeGroup"></path>
            <path d="M290.502,531.373 L308.159,531.373 L308.159,540.679 L290.502,540.679 L290.502,531.373 Z" id="Fill-404" sketch:type="MSShapeGroup"></path>
            <path d="M308.163,529.717 C307.976,520.042 300.171,512.238 290.497,512.052 L290.497,521.368 C295.029,521.551 298.664,525.185 298.847,529.717 L308.163,529.717" id="Fill-405" sketch:type="MSShapeGroup"></path>
            <path d="M271.175,529.717 C271.362,520.042 279.166,512.238 288.84,512.052 L288.84,521.368 C284.308,521.551 280.673,525.185 280.491,529.717 L271.175,529.717" id="Fill-406" sketch:type="MSShapeGroup"></path>
            <path d="M271.178,531.373 L288.836,531.373 L288.836,540.679 L271.178,540.679 L271.178,531.373 Z" id="Fill-407" sketch:type="MSShapeGroup"></path>
            <path d="M271.183,550.655 L288.84,550.655 L288.84,559.961 L271.183,559.961 L271.183,550.655 Z" id="Fill-408" sketch:type="MSShapeGroup"></path>
        </g>
    </g>
</svg>