<?xml version="1.0" encoding="UTF-8" standalone="no"?>
<svg width="86px" height="48px" viewBox="0 0 86 48" version="1.1" xmlns="http://www.w3.org/2000/svg" xmlns:xlink="http://www.w3.org/1999/xlink" xmlns:sketch="http://www.bohemiancoding.com/sketch/ns">
    <!-- Generator: Sketch 3.3.2 (12043) - http://www.bohemiancoding.com/sketch -->
    <title>Slice 33</title>
    <desc>Created with Sketch.</desc>
    <defs></defs>
    <g id="Page-1" stroke="none" stroke-width="1" fill="none" fill-rule="evenodd" sketch:type="MSPage">
        <g id="Imported-Layers" sketch:type="MSLayerGroup" transform="translate(-344.000000, -512.000000)" fill="#F9E93C">
            <path d="M364.295,531.345 L373.601,531.345 L373.601,549.003 L364.295,549.003 L364.295,531.345 Z" id="Fill-409" sketch:type="MSShapeGroup"></path>
            <path d="M364.295,512.029 L373.601,512.029 L373.601,529.687 L364.295,529.687 L364.295,512.029 Z" id="Fill-410" sketch:type="MSShapeGroup"></path>
            <path d="M344.98,531.344 L362.638,531.344 L362.638,540.652 L344.98,540.652 L344.98,531.344 Z" id="Fill-411" sketch:type="MSShapeGroup"></path>
            <path d="M375.256,531.344 L384.563,531.344 L384.563,540.652 L375.256,540.652 L375.256,531.344 Z" id="Fill-412" sketch:type="MSShapeGroup"></path>
            <path d="M364.294,550.659 L373.6,550.659 L373.6,559.965 L364.294,559.965 L364.294,550.659 Z" id="Fill-413" sketch:type="MSShapeGroup"></path>
            <path d="M344.981,512.029 L354.288,512.029 L354.288,529.687 L344.981,529.687 L344.981,512.029 Z" id="Fill-414" sketch:type="MSShapeGroup"></path>
            <path d="M392.239,529.705 C392.427,520.03 400.23,512.228 409.904,512.039 L409.904,521.356 C405.373,521.538 401.738,525.173 401.555,529.705 L392.239,529.705" id="Fill-415" sketch:type="MSShapeGroup"></path>
            <path d="M392.239,542.326 C392.426,552.001 400.23,559.805 409.903,559.993 L409.903,550.677 C405.373,550.494 401.737,546.859 401.554,542.326 L392.239,542.326" id="Fill-416" sketch:type="MSShapeGroup"></path>
            <path d="M429.228,542.322 C429.041,551.997 421.236,559.801 411.562,559.989 L411.562,550.672 C416.095,550.49 419.728,546.855 419.911,542.322 L429.228,542.322" id="Fill-417" sketch:type="MSShapeGroup"></path>
            <path d="M429.228,529.705 C429.041,520.03 421.236,512.228 411.562,512.039 L411.562,521.356 C416.095,521.538 419.728,525.173 419.911,529.705 L429.228,529.705" id="Fill-418" sketch:type="MSShapeGroup"></path>
            <path d="M392.239,531.364 L401.546,531.364 L401.546,540.672 L392.239,540.672 L392.239,531.364 Z" id="Fill-419" sketch:type="MSShapeGroup"></path>
            <path d="M419.92,531.36 L429.228,531.36 L429.228,540.668 L419.92,540.668 L419.92,531.36 Z" id="Fill-420" sketch:type="MSShapeGroup"></path>
        </g>
    </g>
</svg>