<?xml version="1.0" encoding="UTF-8" standalone="no"?>
<svg width="66px" height="48px" viewBox="0 0 66 48" version="1.1" xmlns="http://www.w3.org/2000/svg" xmlns:xlink="http://www.w3.org/1999/xlink" xmlns:sketch="http://www.bohemiancoding.com/sketch/ns">
    <!-- Generator: Sketch 3.3.2 (12043) - http://www.bohemiancoding.com/sketch -->
    <title>Slice 40</title>
    <desc>Created with Sketch.</desc>
    <defs></defs>
    <g id="Page-1" stroke="none" stroke-width="1" fill="none" fill-rule="evenodd" sketch:type="MSPage">
        <g id="Imported-Layers" sketch:type="MSLayerGroup" transform="translate(-506.000000, 0.000000)" fill="#F9E93C">
            <path d="M526.243,19.374 L535.549,19.374 L535.549,37.031 L526.243,37.031 L526.243,19.374 Z" id="Fill-421" sketch:type="MSShapeGroup"></path>
            <path d="M526.243,0.06 L535.549,0.06 L535.549,17.717 L526.243,17.717 L526.243,0.06 Z" id="Fill-422" sketch:type="MSShapeGroup"></path>
            <path d="M506.929,19.373 L524.587,19.373 L524.587,28.68 L506.929,28.68 L506.929,19.373 Z" id="Fill-423" sketch:type="MSShapeGroup"></path>
            <path d="M537.205,19.373 L546.512,19.373 L546.512,28.68 L537.205,28.68 L537.205,19.373 Z" id="Fill-424" sketch:type="MSShapeGroup"></path>
            <path d="M526.243,38.688 L535.549,38.688 L535.549,47.993 L526.243,47.993 L526.243,38.688 Z" id="Fill-425" sketch:type="MSShapeGroup"></path>
            <path d="M506.929,0.06 L516.236,0.06 L516.236,17.717 L506.929,17.717 L506.929,0.06 Z" id="Fill-426" sketch:type="MSShapeGroup"></path>
            <path d="M561.705,19.379 L571.012,19.379 L571.012,37.037 L561.705,37.037 L561.705,19.379 Z" id="Fill-427" sketch:type="MSShapeGroup"></path>
            <path d="M561.705,0.066 L571.012,0.066 L571.012,17.722 L561.705,17.722 L561.705,0.066 Z" id="Fill-428" sketch:type="MSShapeGroup"></path>
            <path d="M550.743,0.066 L560.05,0.066 L560.05,9.372 L550.743,9.372 L550.743,0.066 Z" id="Fill-429" sketch:type="MSShapeGroup"></path>
            <path d="M561.704,38.682 L571.012,38.682 L571.012,47.988 L561.704,47.988 L561.704,38.682 Z" id="Fill-430" sketch:type="MSShapeGroup"></path>
        </g>
    </g>
</svg>