<?xml version="1.0" encoding="UTF-8" standalone="no"?>
<svg width="77px" height="48px" viewBox="0 0 77 48" version="1.1" xmlns="http://www.w3.org/2000/svg" xmlns:xlink="http://www.w3.org/1999/xlink" xmlns:sketch="http://www.bohemiancoding.com/sketch/ns">
    <!-- Generator: Sketch 3.3.2 (12043) - http://www.bohemiancoding.com/sketch -->
    <title>Slice 41</title>
    <desc>Created with Sketch.</desc>
    <defs></defs>
    <g id="Page-1" stroke="none" stroke-width="1" fill="none" fill-rule="evenodd" sketch:type="MSPage">
        <g id="Imported-Layers" sketch:type="MSLayerGroup" transform="translate(-618.000000, 0.000000)" fill="#F9E93C">
            <path d="M637.928,19.359 L647.233,19.359 L647.233,37.016 L637.928,37.016 L637.928,19.359 Z" id="Fill-431" sketch:type="MSShapeGroup"></path>
            <path d="M637.928,0.045 L647.233,0.045 L647.233,17.704 L637.928,17.704 L637.928,0.045 Z" id="Fill-432" sketch:type="MSShapeGroup"></path>
            <path d="M618.614,19.359 L636.27,19.359 L636.27,28.666 L618.614,28.666 L618.614,19.359 Z" id="Fill-433" sketch:type="MSShapeGroup"></path>
            <path d="M648.887,19.359 L658.197,19.359 L658.197,28.666 L648.887,28.666 L648.887,19.359 Z" id="Fill-434" sketch:type="MSShapeGroup"></path>
            <path d="M637.927,38.673 L647.232,38.673 L647.232,47.98 L637.927,47.98 L637.927,38.673 Z" id="Fill-435" sketch:type="MSShapeGroup"></path>
            <path d="M618.614,0.045 L627.92,0.045 L627.92,17.704 L618.614,17.704 L618.614,0.045 Z" id="Fill-436" sketch:type="MSShapeGroup"></path>
            <path d="M665.868,30.337 L675.176,30.337 L675.176,47.993 L665.868,47.993 L665.868,30.337 Z" id="Fill-437" sketch:type="MSShapeGroup"></path>
            <path d="M665.868,19.352 L675.176,19.352 L675.176,28.658 L665.868,28.658 L665.868,19.352 Z" id="Fill-438" sketch:type="MSShapeGroup"></path>
            <path d="M694.493,17.696 C694.305,8.022 686.501,0.218 676.828,0.032 L676.828,9.347 C681.358,9.53 684.993,13.165 685.175,17.696 L694.493,17.696" id="Fill-439" sketch:type="MSShapeGroup"></path>
            <path d="M676.832,19.352 L694.489,19.352 L694.489,28.658 L676.832,28.658 L676.832,19.352 Z" id="Fill-440" sketch:type="MSShapeGroup"></path>
            <path d="M665.868,0.071 L675.176,0.071 L675.176,9.377 L665.868,9.377 L665.868,0.071 Z" id="Fill-441" sketch:type="MSShapeGroup"></path>
            <path d="M676.832,38.688 L694.489,38.688 L694.489,47.993 L676.832,47.993 L676.832,38.688 Z" id="Fill-442" sketch:type="MSShapeGroup"></path>
        </g>
    </g>
</svg>