<?xml version="1.0" encoding="UTF-8" standalone="no"?>
<svg width="74px" height="48px" viewBox="0 0 74 48" version="1.1" xmlns="http://www.w3.org/2000/svg" xmlns:xlink="http://www.w3.org/1999/xlink" xmlns:sketch="http://www.bohemiancoding.com/sketch/ns">
    <!-- Generator: Sketch 3.3.2 (12043) - http://www.bohemiancoding.com/sketch -->
    <title>Slice 42</title>
    <desc>Created with Sketch.</desc>
    <defs></defs>
    <g id="Page-1" stroke="none" stroke-width="1" fill="none" fill-rule="evenodd" sketch:type="MSPage">
        <g id="Imported-Layers" sketch:type="MSLayerGroup" transform="translate(-730.000000, 0.000000)" fill="#F9E93C">
            <path d="M749.612,19.357 L758.92,19.357 L758.92,37.016 L749.612,37.016 L749.612,19.357 Z" id="Fill-443" sketch:type="MSShapeGroup"></path>
            <path d="M749.612,0.043 L758.92,0.043 L758.92,17.701 L749.612,17.701 L749.612,0.043 Z" id="Fill-444" sketch:type="MSShapeGroup"></path>
            <path d="M730.299,19.357 L747.957,19.357 L747.957,28.664 L730.299,28.664 L730.299,19.357 Z" id="Fill-445" sketch:type="MSShapeGroup"></path>
            <path d="M760.575,19.357 L769.882,19.357 L769.882,28.664 L760.575,28.664 L760.575,19.357 Z" id="Fill-446" sketch:type="MSShapeGroup"></path>
            <path d="M749.612,38.671 L758.92,38.671 L758.92,47.977 L749.612,47.977 L749.612,38.671 Z" id="Fill-447" sketch:type="MSShapeGroup"></path>
            <path d="M730.299,0.043 L739.605,0.043 L739.605,17.701 L730.299,17.701 L730.299,0.043 Z" id="Fill-448" sketch:type="MSShapeGroup"></path>
            <path d="M774.701,38.686 L784.009,38.686 L784.009,47.993 L774.701,47.993 L774.701,38.686 Z" id="Fill-449" sketch:type="MSShapeGroup"></path>
            <path d="M803.331,17.694 C803.144,8.018 795.339,0.216 785.665,0.029 L785.665,9.343 C790.197,9.527 793.831,13.162 794.014,17.694 L803.331,17.694" id="Fill-450" sketch:type="MSShapeGroup"></path>
            <path d="M785.668,19.349 L803.326,19.349 L803.326,28.657 L785.668,28.657 L785.668,19.349 Z" id="Fill-451" sketch:type="MSShapeGroup"></path>
            <path d="M785.665,47.993 C795.339,47.806 803.144,40 803.331,30.327 L794.014,30.327 C793.831,34.859 790.197,38.494 785.665,38.677 L785.665,47.993" id="Fill-452" sketch:type="MSShapeGroup"></path>
            <path d="M774.701,0.07 L784.009,0.07 L784.009,9.376 L774.701,9.376 L774.701,0.07 Z" id="Fill-453" sketch:type="MSShapeGroup"></path>
        </g>
    </g>
</svg>