<?xml version="1.0" encoding="UTF-8" standalone="no"?>
<svg width="88px" height="48px" viewBox="0 0 88 48" version="1.1" xmlns="http://www.w3.org/2000/svg" xmlns:xlink="http://www.w3.org/1999/xlink" xmlns:sketch="http://www.bohemiancoding.com/sketch/ns">
    <!-- Generator: Sketch 3.3.2 (12043) - http://www.bohemiancoding.com/sketch -->
    <title>Slice 43</title>
    <desc>Created with Sketch.</desc>
    <defs></defs>
    <g id="Page-1" stroke="none" stroke-width="1" fill="none" fill-rule="evenodd" sketch:type="MSPage">
        <g id="Imported-Layers" sketch:type="MSLayerGroup" transform="translate(-841.000000, 0.000000)" fill="#F9E93C">
            <path d="M861.298,19.373 L870.604,19.373 L870.604,37.03 L861.298,37.03 L861.298,19.373 Z" id="Fill-454" sketch:type="MSShapeGroup"></path>
            <path d="M861.298,0.057 L870.604,0.057 L870.604,17.715 L861.298,17.715 L861.298,0.057 Z" id="Fill-455" sketch:type="MSShapeGroup"></path>
            <path d="M841.984,19.373 L859.642,19.373 L859.642,28.679 L841.984,28.679 L841.984,19.373 Z" id="Fill-456" sketch:type="MSShapeGroup"></path>
            <path d="M872.26,19.373 L881.567,19.373 L881.567,28.679 L872.26,28.679 L872.26,19.373 Z" id="Fill-457" sketch:type="MSShapeGroup"></path>
            <path d="M861.298,38.686 L870.604,38.686 L870.604,47.993 L861.298,47.993 L861.298,38.686 Z" id="Fill-458" sketch:type="MSShapeGroup"></path>
            <path d="M841.984,0.057 L851.291,0.057 L851.291,17.715 L841.984,17.715 L841.984,0.057 Z" id="Fill-459" sketch:type="MSShapeGroup"></path>
            <path d="M908.52,19.373 L917.828,19.373 L917.828,37.03 L908.52,37.03 L908.52,19.373 Z" id="Fill-460" sketch:type="MSShapeGroup"></path>
            <path d="M908.52,0.057 L917.828,0.057 L917.828,17.715 L908.52,17.715 L908.52,0.057 Z" id="Fill-461" sketch:type="MSShapeGroup"></path>
            <path d="M889.207,19.373 L906.864,19.373 L906.864,28.679 L889.207,28.679 L889.207,19.373 Z" id="Fill-462" sketch:type="MSShapeGroup"></path>
            <path d="M919.483,19.373 L928.79,19.373 L928.79,28.679 L919.483,28.679 L919.483,19.373 Z" id="Fill-463" sketch:type="MSShapeGroup"></path>
            <path d="M908.52,38.686 L917.828,38.686 L917.828,47.993 L908.52,47.993 L908.52,38.686 Z" id="Fill-464" sketch:type="MSShapeGroup"></path>
            <path d="M889.207,0.057 L898.514,0.057 L898.514,17.715 L889.207,17.715 L889.207,0.057 Z" id="Fill-465" sketch:type="MSShapeGroup"></path>
        </g>
    </g>
</svg>