<?xml version="1.0" encoding="UTF-8" standalone="no"?>
<svg width="79px" height="48px" viewBox="0 0 79 48" version="1.1" xmlns="http://www.w3.org/2000/svg" xmlns:xlink="http://www.w3.org/1999/xlink" xmlns:sketch="http://www.bohemiancoding.com/sketch/ns">
    <!-- Generator: Sketch 3.3.2 (12043) - http://www.bohemiancoding.com/sketch -->
    <title>Slice 44</title>
    <desc>Created with Sketch.</desc>
    <defs></defs>
    <g id="Page-1" stroke="none" stroke-width="1" fill="none" fill-rule="evenodd" sketch:type="MSPage">
        <g id="Imported-Layers" sketch:type="MSLayerGroup" transform="translate(-506.000000, -128.000000)" fill="#F9E93C">
            <path d="M526.243,147.367 L535.549,147.367 L535.549,165.025 L526.243,165.025 L526.243,147.367 Z" id="Fill-466" sketch:type="MSShapeGroup"></path>
            <path d="M526.243,128.054 L535.549,128.054 L535.549,145.711 L526.243,145.711 L526.243,128.054 Z" id="Fill-467" sketch:type="MSShapeGroup"></path>
            <path d="M506.929,147.367 L524.587,147.367 L524.587,156.674 L506.929,156.674 L506.929,147.367 Z" id="Fill-468" sketch:type="MSShapeGroup"></path>
            <path d="M537.205,147.367 L546.512,147.367 L546.512,156.674 L537.205,156.674 L537.205,147.367 Z" id="Fill-469" sketch:type="MSShapeGroup"></path>
            <path d="M526.243,166.682 L535.549,166.682 L535.549,175.989 L526.243,175.989 L526.243,166.682 Z" id="Fill-470" sketch:type="MSShapeGroup"></path>
            <path d="M506.929,128.054 L516.236,128.054 L516.236,145.711 L506.929,145.711 L506.929,128.054 Z" id="Fill-471" sketch:type="MSShapeGroup"></path>
            <path d="M555.767,128.051 L565.073,128.051 L565.073,145.708 L555.767,145.708 L555.767,128.051 Z" id="Fill-472" sketch:type="MSShapeGroup"></path>
            <path d="M555.766,147.363 L565.073,147.363 L565.073,156.67 L555.766,156.67 L555.766,147.363 Z" id="Fill-473" sketch:type="MSShapeGroup"></path>
            <path d="M584.39,158.327 C584.204,168 576.399,175.806 566.725,175.993 L566.725,166.676 C571.256,166.492 574.891,162.859 575.074,158.327 L584.39,158.327" id="Fill-474" sketch:type="MSShapeGroup"></path>
            <path d="M566.728,147.363 L584.387,147.363 L584.387,156.67 L566.728,156.67 L566.728,147.363 Z" id="Fill-475" sketch:type="MSShapeGroup"></path>
            <path d="M555.763,166.668 L565.069,166.668 L565.069,175.975 L555.763,175.975 L555.763,166.668 Z" id="Fill-476" sketch:type="MSShapeGroup"></path>
            <path d="M566.728,128.051 L584.387,128.051 L584.387,137.358 L566.728,137.358 L566.728,128.051 Z" id="Fill-477" sketch:type="MSShapeGroup"></path>
        </g>
    </g>
</svg>