<?xml version="1.0" encoding="UTF-8" standalone="no"?>
<svg width="85px" height="48px" viewBox="0 0 85 48" version="1.1" xmlns="http://www.w3.org/2000/svg" xmlns:xlink="http://www.w3.org/1999/xlink" xmlns:sketch="http://www.bohemiancoding.com/sketch/ns">
    <!-- Generator: Sketch 3.3.2 (12043) - http://www.bohemiancoding.com/sketch -->
    <title>Slice 45</title>
    <desc>Created with Sketch.</desc>
    <defs></defs>
    <g id="Page-1" stroke="none" stroke-width="1" fill="none" fill-rule="evenodd" sketch:type="MSPage">
        <g id="Imported-Layers" sketch:type="MSLayerGroup" transform="translate(-618.000000, -128.000000)" fill="#F9E93C">
            <path d="M637.928,147.373 L647.233,147.373 L647.233,165.03 L637.928,165.03 L637.928,147.373 Z" id="Fill-478" sketch:type="MSShapeGroup"></path>
            <path d="M637.928,128.057 L647.233,128.057 L647.233,145.715 L637.928,145.715 L637.928,128.057 Z" id="Fill-479" sketch:type="MSShapeGroup"></path>
            <path d="M618.614,147.373 L636.27,147.373 L636.27,156.679 L618.614,156.679 L618.614,147.373 Z" id="Fill-480" sketch:type="MSShapeGroup"></path>
            <path d="M648.887,147.373 L658.197,147.373 L658.197,156.679 L648.887,156.679 L648.887,147.373 Z" id="Fill-481" sketch:type="MSShapeGroup"></path>
            <path d="M637.927,166.686 L647.232,166.686 L647.232,175.993 L637.927,175.993 L637.927,166.686 Z" id="Fill-482" sketch:type="MSShapeGroup"></path>
            <path d="M618.614,128.057 L627.92,128.057 L627.92,145.715 L618.614,145.715 L618.614,128.057 Z" id="Fill-483" sketch:type="MSShapeGroup"></path>
            <path d="M665.577,145.726 C665.766,136.052 673.568,128.25 683.244,128.059 L683.244,137.376 C678.712,137.559 675.078,141.196 674.895,145.726 L665.577,145.726" id="Fill-484" sketch:type="MSShapeGroup"></path>
            <path d="M665.582,147.362 L683.239,147.362 L683.239,156.667 L665.582,156.667 L665.582,147.362 Z" id="Fill-485" sketch:type="MSShapeGroup"></path>
            <path d="M665.577,158.323 C665.766,167.999 673.569,175.802 683.244,175.99 L683.244,166.672 C678.713,166.492 675.077,162.856 674.894,158.323 L665.577,158.323" id="Fill-486" sketch:type="MSShapeGroup"></path>
            <path d="M702.566,158.323 C702.379,167.999 694.575,175.802 684.9,175.99 L684.9,166.672 C689.432,166.492 693.067,162.856 693.249,158.323 L702.566,158.323" id="Fill-487" sketch:type="MSShapeGroup"></path>
            <path d="M684.904,147.362 L702.562,147.362 L702.562,156.667 L684.904,156.667 L684.904,147.362 Z" id="Fill-488" sketch:type="MSShapeGroup"></path>
            <path d="M684.781,128.07 L702.439,128.07 L702.439,137.377 L684.781,137.377 L684.781,128.07 Z" id="Fill-489" sketch:type="MSShapeGroup"></path>
        </g>
    </g>
</svg>